<svg xmlns="http://www.w3.org/2000/svg" viewBox="0 0 900 650" role="img" aria-label="Squirrel painting a landscape at an easel in an autumn woodland">
<defs>
<linearGradient id="sky" x2="0" y2="1">
<stop stop-color="#7dc6d3"/>
<stop offset="1" stop-color="#f5d59b"/>
</linearGradient>
<linearGradient id="ground" x2="0" y2="1">
<stop stop-color="#a56e37"/>
<stop offset="1" stop-color="#493523"/>
</linearGradient>
<linearGradient id="fur" x1=".2" y1="0" x2=".8" y2="1">
<stop stop-color="#d67f38"/>
<stop offset=".55" stop-color="#9b4e2d"/>
<stop offset="1" stop-color="#522b27"/>
</linearGradient>
<linearGradient id="tail" x2=".8" y2="1">
<stop stop-color="#e99b4e"/>
<stop offset=".5" stop-color="#a64f2c"/>
<stop offset="1" stop-color="#5a2d26"/>
</linearGradient>
<linearGradient id="canvas" x2=".7" y2="1">
<stop stop-color="#fff5d2"/>
<stop offset="1" stop-color="#cdbf99"/>
</linearGradient>
<pattern id="bark" width="28" height="65" patternUnits="userSpaceOnUse">
<path d="M 6 0q -8 18 5 31T 7 65M 22 0q 8 21-3 35t 4 30" fill="none" stroke="#3b291f" stroke-width="4" opacity=".4"/>
</pattern>
</defs>
<rect width="900" height="650" fill="url(#sky)"/>
<path d="M 0 289q 96-74 190-24 97-81 195-8 98-91 192 5 104-78 201-6 65-54 122 2v 151H 0z" fill="#777c4b"/>
<path d="M 0 337q 109-71 219-21 113-78 218-10 135-91 257 5 119-73 206 9v 111H 0z" fill="#59633d"/>
<g stroke="#4e3024" stroke-width="5">
<path d="M 50 0l 15 430h 92L 131 0z" fill="#70432c"/>
<path d="M 50 0l 15 430h 92L 131 0z" fill="url(#bark)"/>
<path d="M 744 0l -28 446h 109L 842 0z" fill="#6c402b"/>
<path d="M 744 0l -28 446h 109L 842 0z" fill="url(#bark)"/>
<path d="M 285 0l 14 342h 57L 347 0z" fill="#815036"/>
<path d="M 529 0l -12 351h 61L 591 0z" fill="#6f4430"/>
</g>
<g opacity=".98">
<path d="M 0 0h 408q -15 61-78 53 8 69-70 59-28 68-91 24-68 49-111-21Q 15 133 0 89z" fill="#b64e2c"/>
<path d="M 209 0h 404q -5 55-64 61-23 59-85 24-39 61-98 7-63 34-96-28-49 19-61-31z" fill="#dc7a2d"/>
<path d="M 568 0h 332v 139q -40 28-70-14-56 44-87-20-68 29-91-30-62 16-84-36z" fill="#9f3e2c"/>
<g fill="#f0a638">
<circle cx="86" cy="70" r="37"/>
<circle cx="180" cy="42" r="45"/>
<circle cx="382" cy="40" r="38"/>
<circle cx="488" cy="55" r="42"/>
<circle cx="687" cy="48" r="43"/>
<circle cx="798" cy="79" r="51"/>
</g>
</g>
<path d="M 0 370q 177-45 347-5 188 45 347 0 108-30 206 0v 285H 0z" fill="url(#ground)"/>
<path d="M 390 650q 85-117 65-287h 109q -2 175 156 287z" fill="#c59a64" opacity=".58"/>
<path d="M 430 650q 63-116 64-286m 180 286q -128-113-139-286" fill="none" stroke="#e0bc83" stroke-width="5" opacity=".42"/>
<g stroke="#693227" stroke-width="2">
<path d="M 42 488q 20-29 42 0-20 22-42 0z" fill="#dd7b2f" transform="rotate(15 63 488)"/>
<path d="M 177 562q 20-29 42 0-20 22-42 0z" fill="#b9442d" transform="rotate(-22 198 562)"/>
<path d="M 294 611q 20-29 42 0-20 22-42 0z" fill="#edaa3f" transform="rotate(28 315 611)"/>
<path d="M 672 510q 20-29 42 0-20 22-42 0z" fill="#d4592c" transform="rotate(-12 693 510)"/>
<path d="M 814 589q 20-29 42 0-20 22-42 0z" fill="#eca43b" transform="rotate(31 835 589)"/>
<path d="M 735 416q 15-22 32 0-15 18-32 0z" fill="#bd462d"/>
</g>
<path d="M 358 0h 91L 334 569H 174zM 589 0h 72l 93 537H 613z" fill="#ffe7a5" opacity=".13"/>
<ellipse cx="517" cy="615" rx="248" ry="30" fill="#2d211c" opacity=".42"/>
<path d="M 570 261l 98 345" stroke="#51301f" stroke-width="18" stroke-linecap="round"/>
<path d="M 570 261l 93 333" stroke="#c08045" stroke-width="6" opacity=".5"/>
<path d="M 498 204L 403 616M 498 204l 94 412" stroke="#87502d" stroke-width="19" stroke-linecap="round"/>
<path d="M 498 215L 409 606M 499 215l 87 391" stroke="#d69a58" stroke-width="5" opacity=".55"/>
<path d="M 355 492h 287" stroke="#6b3e28" stroke-width="21" stroke-linecap="round"/>
<path d="M 366 486h 265" stroke="#d09757" stroke-width="5" opacity=".6"/>
<rect x="339" y="190" width="303" height="296" rx="4" fill="#8a512e" stroke="#442a20" stroke-width="7"/>
<rect x="359" y="209" width="263" height="250" fill="url(#canvas)" stroke="#d9ba86" stroke-width="5"/>
<clipPath id="paintclip">
<rect x="359" y="209" width="263" height="250"/>
</clipPath>
<g clip-path="url(#paintclip)">
<rect x="359" y="209" width="263" height="250" fill="#77bdca"/>
<circle cx="559" cy="254" r="30" fill="#f7d36a"/>
<path d="M 359 337q 57-69 112-17 48-77 98-5 30-34 53-16v 72H 359z" fill="#526f50"/>
<path d="M 359 371q 64-54 128-7 70-57 135-8v 103H 359z" fill="#9b5b32"/>
<path d="M 462 459q 34-74 29-111h 50q -2 53 46 111z" fill="#d7a36d"/>
<path d="M 376 293v 134m -12-79h 24m 185-79v 150m -15-90h 31" stroke="#633d2a" stroke-width="9"/>
<g fill="#d9652d">
<circle cx="378" cy="301" r="27"/>
<circle cx="572" cy="285" r="33"/>
</g>
<g fill="#f0a136">
<circle cx="397" cy="320" r="23"/>
<circle cx="591" cy="315" r="25"/>
</g>
<path d="M 365 443q 85-15 164 0m 23-3q 33-8 68 0" stroke="#d58a43" stroke-width="8" opacity=".7"/>
</g>
<path d="M 371 448q 17-17 34 0m 37 0q 16-22 31 0m 38 0q 17-17 34 0" fill="none" stroke="#efc94c" stroke-width="7"/>
<path d="M 271 357c -117-98-231-23-202 84 15 58 70 61 100 26-76-40-21-112 48-65 72 49 39 139-49 158 112 47 205-21 191-122-6-43-37-68-88-81z" fill="url(#tail)" stroke="#542d27" stroke-width="8"/>
<path d="M 99 412q 46-66 119-10 70 54 30 115m -80 40q 113 8 148-75" fill="none" stroke="#f3ad5c" stroke-width="13" opacity=".45" stroke-linecap="round"/>
<ellipse cx="290" cy="482" rx="90" ry="125" transform="rotate(-4 290 482)" fill="url(#fur)" stroke="#502b27" stroke-width="7"/>
<path d="M 240 434q 56-33 109 3l 14 132q -75 34-146 0z" fill="#3b7d6d" stroke="#284e49" stroke-width="5"/>
<path d="M 249 449q 46 20 91 0" fill="none" stroke="#a4c8a0" stroke-width="7"/>
<path d="M 217 303q -18-70 29-74 36-2 37 58m 48 2q 8-69 54-55 41 12 3 82" fill="url(#fur)" stroke="#502b27" stroke-width="7"/>
<path d="M 232 285q -7-34 13-37 18 1 21 38m 85 9q 7-38 27-40 16 9-7 47" fill="#e8a062"/>
<path d="M 204 340q 4-83 83-93 89-11 129 66 37 73-35 126-84 61-151-5-30-28-26-94z" fill="url(#fur)" stroke="#502b27" stroke-width="7"/>
<ellipse cx="357" cy="368" rx="59" ry="50" fill="#edbd7b"/>
<ellipse cx="268" cy="324" rx="10" ry="14" fill="#15201e"/>
<ellipse cx="345" cy="309" rx="10" ry="14" fill="#15201e"/>
<circle cx="265" cy="320" r="3" fill="white"/>
<circle cx="342" cy="305" r="3" fill="white"/>
<path d="M 366 351q 17-11 31 2-4 19-20 20-14-5-11-22z" fill="#422a27"/>
<path d="M 377 372q 0 17-18 23m 18-23q 5 16 23 17" fill="none" stroke="#55302b" stroke-width="4" stroke-linecap="round"/>
<path d="M 234 297q 27-20 51-5m 37-18q 28-10 48 8" fill="none" stroke="#6c3429" stroke-width="7" stroke-linecap="round"/>
<path d="M 339 429q 58-28 78-77" fill="none" stroke="#b76132" stroke-width="31" stroke-linecap="round"/>
<ellipse cx="421" cy="342" rx="24" ry="17" transform="rotate(-55 421 342)" fill="#df9550" stroke="#5b332b" stroke-width="4"/>
<path d="M 421 338l 88-66" stroke="#5c3827" stroke-width="8" stroke-linecap="round"/>
<path d="M 503 277l 20-20" stroke="#3d6785" stroke-width="12" stroke-linecap="round"/>
<path d="M 247 430q -49 27-53 76" fill="none" stroke="#c66f38" stroke-width="32" stroke-linecap="round"/>
<path d="M 132 519q 66-60 132-4 17 62-63 70-80 8-69-66z" fill="#d29b60" stroke="#593726" stroke-width="6"/>
<ellipse cx="168" cy="536" rx="14" ry="18" fill="#4b3228"/>
<g stroke="#75462f" stroke-width="2">
<circle cx="205" cy="519" r="12" fill="#e14e33"/>
<circle cx="235" cy="535" r="12" fill="#e9bf3c"/>
<circle cx="206" cy="558" r="12" fill="#477d63"/>
<circle cx="163" cy="565" r="11" fill="#496fa5"/>
</g>
<ellipse cx="190" cy="500" rx="22" ry="16" transform="rotate(-20 190 500)" fill="#dc904b" stroke="#5b332b" stroke-width="4"/>
<path d="M 655 552h 124l 24 73H 632z" fill="#7c4a30" stroke="#3f2c26" stroke-width="6"/>
<path d="M 665 552v -43h 101v 43" fill="none" stroke="#7c4a30" stroke-width="12"/>
<path d="M 651 571h 136" stroke="#d09559" stroke-width="5"/>
<g fill="#e7bf61">
<circle cx="674" cy="590" r="7"/>
<circle cx="707" cy="590" r="7"/>
<circle cx="740" cy="590" r="7"/>
</g>
</svg>
