<svg xmlns="http://www.w3.org/2000/svg" width="960" height="760" viewBox="0 0 960 760">
<defs>
<linearGradient id="wood" x1="0" y1="0" x2="1" y2="1">
<stop stop-color="#c28a56"/>
<stop offset="1" stop-color="#69422d"/>
</linearGradient>
<linearGradient id="clay" x1="0" y1="0" x2="1" y2="1">
<stop stop-color="#eda782"/>
<stop offset="1" stop-color="#994f3e"/>
</linearGradient>
<radialGradient id="otter" cx=".32" cy=".25" r=".82">
<stop stop-color="#ab7853"/>
<stop offset="1" stop-color="#5b4036"/>
</radialGradient>
<radialGradient id="cream" cx=".32" cy=".25" r=".82">
<stop stop-color="#fff0cb"/>
<stop offset="1" stop-color="#c6a782"/>
</radialGradient>
<linearGradient id="apron" x1="0" y1="0" x2="1" y2="1">
<stop stop-color="#7caaaa"/>
<stop offset="1" stop-color="#326469"/>
</linearGradient>
<linearGradient id="brass" x1="0" y1="0" x2="1" y2="1">
<stop stop-color="#ffe3a0"/>
<stop offset="1" stop-color="#966123"/>
</linearGradient>
<radialGradient id="eye" cx=".32" cy=".25" r=".82">
<stop stop-color="#654e37"/>
<stop offset="1" stop-color="#171e22"/>
</radialGradient>
<linearGradient id="leaf" x1="0" y1="0" x2="1" y2="1">
<stop stop-color="#a9c766"/>
<stop offset="1" stop-color="#347557"/>
</linearGradient>
<linearGradient id="autumn" x1="0" y1="0" x2="0" y2="1">
<stop stop-color="#eed4a0"/>
<stop offset="1" stop-color="#b39f72"/>
</linearGradient>
<radialGradient id="squirrel" cx=".32" cy=".25" r=".82">
<stop stop-color="#d09351"/>
<stop offset="1" stop-color="#83472e"/>
</radialGradient>
</defs>
<rect x="0" y="0" width="960" height="760" rx="0" fill="url(#autumn)"/>
<path d="M 0 449Q 195 353 411 422T 960 380V 760H 0Z" fill="#bcaa72" />
<path d="M 21.0 530Q 51 266 22 0H 67Q 46 271 72.8 530Z" fill="#79614a" />
<path d="M 42 304L -55 163M 42 206L 121 118" fill="none" stroke="#79614a" stroke-width="18.2" stroke-linecap="round" stroke-linejoin="round" />
<path d="M 190.5 483Q 213 266 184 0H 229Q 208 271 223.8 483Z" fill="#79614a" />
<path d="M 204 304L 107 163M 204 206L 283 118" fill="none" stroke="#79614a" stroke-width="11.700000000000001" stroke-linecap="round" stroke-linejoin="round" />
<path d="M 793.0 508Q 820 266 791 0H 836Q 815 271 837.4 508Z" fill="#79614a" />
<path d="M 811 304L 714 163M 811 206L 890 118" fill="none" stroke="#79614a" stroke-width="15.6" stroke-linecap="round" stroke-linejoin="round" />
<path d="M 904.0 533Q 937 266 908 0H 953Q 932 271 963.2 533Z" fill="#79614a" />
<path d="M 928 304L 831 163M 928 206L 1007 118" fill="none" stroke="#79614a" stroke-width="20.8" stroke-linecap="round" stroke-linejoin="round" />
<path d="M 374.5 416Q 394 266 365 0H 410Q 389 271 400.4 416Z" fill="#79614a" />
<path d="M 385 304L 288 163M 385 206L 464 118" fill="none" stroke="#79614a" stroke-width="9.1" stroke-linecap="round" stroke-linejoin="round" />
<ellipse cx="460" cy="151" rx="27" ry="21" fill="#b96e3b" />
<ellipse cx="721" cy="54" rx="20" ry="17" fill="#b96e3b" />
<ellipse cx="591" cy="26" rx="31" ry="14" fill="#d9b05a" />
<ellipse cx="333" cy="50" rx="28" ry="12" fill="#d9b05a" />
<ellipse cx="686" cy="125" rx="30" ry="19" fill="#dfba6d" />
<ellipse cx="397" cy="156" rx="26" ry="12" fill="#d9b05a" />
<ellipse cx="360" cy="117" rx="33" ry="14" fill="#d9b05a" />
<ellipse cx="940" cy="157" rx="32" ry="11" fill="#d19a4b" />
<ellipse cx="320" cy="30" rx="21" ry="18" fill="#b96e3b" />
<ellipse cx="187" cy="95" rx="36" ry="13" fill="#dfba6d" />
<ellipse cx="397" cy="107" rx="33" ry="13" fill="#dfba6d" />
<ellipse cx="392" cy="108" rx="19" ry="24" fill="#dfba6d" />
<ellipse cx="710" cy="165" rx="19" ry="14" fill="#9f673d" />
<ellipse cx="295" cy="35" rx="19" ry="19" fill="#9f673d" />
<ellipse cx="634" cy="13" rx="25" ry="9" fill="#9f673d" />
<ellipse cx="139" cy="49" rx="26" ry="24" fill="#9f673d" />
<ellipse cx="701" cy="125" rx="27" ry="23" fill="#9f673d" />
<ellipse cx="171" cy="21" rx="32" ry="9" fill="#d19a4b" />
<ellipse cx="299" cy="8" rx="22" ry="16" fill="#dfba6d" />
<ellipse cx="295" cy="43" rx="28" ry="24" fill="#dfba6d" />
<ellipse cx="523" cy="28" rx="32" ry="12" fill="#d9b05a" />
<ellipse cx="793" cy="139" rx="25" ry="10" fill="#9f673d" />
<ellipse cx="559" cy="55" rx="27" ry="12" fill="#d19a4b" />
<ellipse cx="304" cy="8" rx="28" ry="17" fill="#d9b05a" />
<ellipse cx="882" cy="22" rx="28" ry="12" fill="#d19a4b" />
<ellipse cx="214" cy="188" rx="32" ry="20" fill="#dfba6d" />
<ellipse cx="647" cy="109" rx="19" ry="13" fill="#d19a4b" />
<ellipse cx="833" cy="52" rx="15" ry="20" fill="#dfba6d" />
<ellipse cx="287" cy="152" rx="31" ry="14" fill="#d9b05a" />
<ellipse cx="720" cy="74" rx="23" ry="17" fill="#dfba6d" />
<ellipse cx="921" cy="173" rx="17" ry="13" fill="#9f673d" />
<ellipse cx="940" cy="15" rx="22" ry="13" fill="#d19a4b" />
<ellipse cx="255" cy="37" rx="36" ry="19" fill="#d19a4b" />
<ellipse cx="779" cy="173" rx="26" ry="24" fill="#d19a4b" />
<ellipse cx="591" cy="161" rx="22" ry="22" fill="#9f673d" />
<ellipse cx="462" cy="19" rx="34" ry="11" fill="#9f673d" />
<ellipse cx="527" cy="191" rx="22" ry="20" fill="#9f673d" />
<ellipse cx="499" cy="83" rx="32" ry="9" fill="#b96e3b" />
<ellipse cx="748" cy="117" rx="34" ry="20" fill="#b96e3b" />
<ellipse cx="814" cy="136" rx="26" ry="15" fill="#9f673d" />
<ellipse cx="844" cy="54" rx="29" ry="17" fill="#d9b05a" />
<ellipse cx="848" cy="72" rx="24" ry="13" fill="#dfba6d" />
<ellipse cx="872" cy="124" rx="24" ry="10" fill="#b96e3b" />
<ellipse cx="101" cy="160" rx="28" ry="9" fill="#b96e3b" />
<ellipse cx="951" cy="40" rx="28" ry="23" fill="#b96e3b" />
<ellipse cx="438" cy="51" rx="36" ry="13" fill="#d9b05a" />
<ellipse cx="162" cy="70" rx="16" ry="20" fill="#d9b05a" />
<ellipse cx="84" cy="95" rx="35" ry="14" fill="#b96e3b" />
<ellipse cx="405" cy="160" rx="23" ry="16" fill="#9f673d" />
<ellipse cx="671" cy="23" rx="36" ry="12" fill="#b96e3b" />
<ellipse cx="218" cy="122" rx="16" ry="13" fill="#dfba6d" />
<ellipse cx="231" cy="132" rx="35" ry="23" fill="#b96e3b" />
<ellipse cx="8" cy="178" rx="24" ry="12" fill="#9f673d" />
<ellipse cx="710" cy="33" rx="29" ry="11" fill="#d19a4b" />
<ellipse cx="392" cy="22" rx="37" ry="12" fill="#b96e3b" />
<ellipse cx="320" cy="94" rx="23" ry="13" fill="#9f673d" />
<ellipse cx="792" cy="192" rx="18" ry="13" fill="#b96e3b" />
<ellipse cx="543" cy="144" rx="14" ry="14" fill="#9f673d" />
<ellipse cx="359" cy="184" rx="20" ry="13" fill="#9f673d" />
<ellipse cx="630" cy="175" rx="28" ry="15" fill="#b96e3b" />
<ellipse cx="918" cy="25" rx="18" ry="12" fill="#dfba6d" />
<ellipse cx="747" cy="98" rx="25" ry="22" fill="#d9b05a" />
<ellipse cx="810" cy="35" rx="21" ry="17" fill="#b96e3b" />
<ellipse cx="254" cy="141" rx="33" ry="18" fill="#b96e3b" />
<ellipse cx="868" cy="168" rx="23" ry="15" fill="#dfba6d" />
<ellipse cx="621" cy="130" rx="20" ry="21" fill="#d9b05a" />
<ellipse cx="661" cy="13" rx="21" ry="24" fill="#9f673d" />
<ellipse cx="115" cy="61" rx="29" ry="11" fill="#dfba6d" />
<ellipse cx="910" cy="3" rx="25" ry="19" fill="#d19a4b" />
<ellipse cx="396" cy="145" rx="27" ry="20" fill="#dfba6d" />
<ellipse cx="699" cy="44" rx="29" ry="11" fill="#b96e3b" />
<ellipse cx="601" cy="17" rx="14" ry="17" fill="#d19a4b" />
<ellipse cx="40" cy="15" rx="26" ry="18" fill="#dfba6d" />
<ellipse cx="785" cy="106" rx="27" ry="21" fill="#b96e3b" />
<ellipse cx="655" cy="137" rx="31" ry="13" fill="#d9b05a" />
<ellipse cx="85" cy="79" rx="16" ry="15" fill="#d19a4b" />
<ellipse cx="549" cy="83" rx="26" ry="11" fill="#d9b05a" />
<ellipse cx="715" cy="111" rx="37" ry="16" fill="#b96e3b" />
<ellipse cx="250" cy="22" rx="27" ry="12" fill="#9f673d" />
<ellipse cx="626" cy="155" rx="15" ry="18" fill="#d19a4b" />
<ellipse cx="122" cy="3" rx="36" ry="13" fill="#b96e3b" />
<ellipse cx="167" cy="127" rx="25" ry="17" fill="#d19a4b" />
<ellipse cx="380" cy="32" rx="37" ry="17" fill="#b96e3b" />
<ellipse cx="789" cy="7" rx="24" ry="22" fill="#d9b05a" />
<ellipse cx="536" cy="16" rx="22" ry="11" fill="#9f673d" />
<ellipse cx="466" cy="130" rx="25" ry="10" fill="#9f673d" />
<ellipse cx="879" cy="145" rx="19" ry="20" fill="#d19a4b" />
<ellipse cx="261" cy="197" rx="17" ry="12" fill="#d19a4b" />
<ellipse cx="758" cy="130" rx="14" ry="10" fill="#b96e3b" />
<ellipse cx="250" cy="11" rx="29" ry="20" fill="#9f673d" />
<ellipse cx="942" cy="38" rx="19" ry="10" fill="#dfba6d" />
<ellipse cx="822" cy="182" rx="37" ry="22" fill="#d19a4b" />
<ellipse cx="329" cy="63" rx="27" ry="19" fill="#d9b05a" />
<ellipse cx="845" cy="19" rx="32" ry="20" fill="#b96e3b" />
<ellipse cx="514" cy="172" rx="15" ry="14" fill="#d19a4b" />
<ellipse cx="823" cy="132" rx="15" ry="21" fill="#b96e3b" />
<ellipse cx="898" cy="119" rx="23" ry="18" fill="#d9b05a" />
<ellipse cx="88" cy="141" rx="28" ry="9" fill="#d9b05a" />
<ellipse cx="205" cy="74" rx="32" ry="18" fill="#dfba6d" />
<ellipse cx="248" cy="118" rx="25" ry="24" fill="#d19a4b" />
<ellipse cx="750" cy="139" rx="21" ry="13" fill="#b96e3b" />
<ellipse cx="954" cy="104" rx="14" ry="16" fill="#dfba6d" />
<ellipse cx="354" cy="162" rx="36" ry="9" fill="#d9b05a" />
<ellipse cx="1" cy="194" rx="35" ry="21" fill="#d9b05a" />
<ellipse cx="106" cy="52" rx="30" ry="16" fill="#9f673d" />
<ellipse cx="503" cy="15" rx="18" ry="17" fill="#b96e3b" />
<ellipse cx="44" cy="59" rx="30" ry="22" fill="#d9b05a" />
<ellipse cx="469" cy="191" rx="16" ry="12" fill="#dfba6d" />
<ellipse cx="136" cy="163" rx="26" ry="11" fill="#dfba6d" />
<ellipse cx="581" cy="15" rx="27" ry="13" fill="#d19a4b" />
<ellipse cx="298" cy="66" rx="24" ry="21" fill="#d9b05a" />
<ellipse cx="325" cy="115" rx="22" ry="16" fill="#b96e3b" />
<ellipse cx="207" cy="34" rx="32" ry="12" fill="#d19a4b" />
<ellipse cx="108" cy="42" rx="28" ry="23" fill="#d9b05a" />
<ellipse cx="416" cy="30" rx="31" ry="20" fill="#d19a4b" />
<ellipse cx="462" cy="78" rx="28" ry="17" fill="#b96e3b" />
<ellipse cx="92" cy="40" rx="35" ry="18" fill="#dfba6d" />
<ellipse cx="41" cy="55" rx="24" ry="13" fill="#b96e3b" />
<ellipse cx="728" cy="63" rx="25" ry="21" fill="#dfba6d" />
<ellipse cx="50" cy="173" rx="23" ry="17" fill="#d19a4b" />
<ellipse cx="31" cy="103" rx="28" ry="16" fill="#b96e3b" />
<ellipse cx="473" cy="26" rx="18" ry="12" fill="#b96e3b" />
<ellipse cx="63" cy="199" rx="21" ry="13" fill="#d19a4b" />
<ellipse cx="843" cy="102" rx="25" ry="11" fill="#dfba6d" />
<ellipse cx="600" cy="66" rx="16" ry="9" fill="#b96e3b" />
<ellipse cx="202" cy="165" rx="28" ry="13" fill="#b96e3b" />
<ellipse cx="926" cy="84" rx="17" ry="10" fill="#9f673d" />
<ellipse cx="51" cy="43" rx="32" ry="22" fill="#9f673d" />
<ellipse cx="508" cy="7" rx="26" ry="22" fill="#d19a4b" />
<ellipse cx="362" cy="54" rx="19" ry="17" fill="#d9b05a" />
<path d="M 0 638Q 310 512 554 589T 960 568V 760H 0Z" fill="#b9925b" />
<g transform="translate(456 648) rotate(8)" >
<path d="M -8 0Q 0 -12 12 0Q 2 9 -8 0" fill="#ce9b50" />
</g>
<g transform="translate(628 672) rotate(165)" >
<path d="M -8 0Q 0 -12 12 0Q 2 9 -8 0" fill="#ce9b50" />
</g>
<g transform="translate(302 737) rotate(105)" >
<path d="M -8 0Q 0 -12 12 0Q 2 9 -8 0" fill="#ce9b50" />
</g>
<g transform="translate(903 750) rotate(122)" >
<path d="M -8 0Q 0 -12 12 0Q 2 9 -8 0" fill="#ce9b50" />
</g>
<g transform="translate(62 632) rotate(71)" >
<path d="M -8 0Q 0 -12 12 0Q 2 9 -8 0" fill="#ce9b50" />
</g>
<g transform="translate(392 645) rotate(107)" >
<path d="M -8 0Q 0 -12 12 0Q 2 9 -8 0" fill="#ce9b50" />
</g>
<g transform="translate(204 744) rotate(63)" >
<path d="M -8 0Q 0 -12 12 0Q 2 9 -8 0" fill="#ce9b50" />
</g>
<g transform="translate(645 749) rotate(4)" >
<path d="M -8 0Q 0 -12 12 0Q 2 9 -8 0" fill="#ce9b50" />
</g>
<g transform="translate(391 701) rotate(122)" >
<path d="M -8 0Q 0 -12 12 0Q 2 9 -8 0" fill="#ce9b50" />
</g>
<g transform="translate(557 734) rotate(88)" >
<path d="M -8 0Q 0 -12 12 0Q 2 9 -8 0" fill="#ce9b50" />
</g>
<g transform="translate(934 754) rotate(128)" >
<path d="M -8 0Q 0 -12 12 0Q 2 9 -8 0" fill="#ce9b50" />
</g>
<g transform="translate(329 709) rotate(69)" >
<path d="M -8 0Q 0 -12 12 0Q 2 9 -8 0" fill="#ce9b50" />
</g>
<g transform="translate(184 616) rotate(81)" >
<path d="M -8 0Q 0 -12 12 0Q 2 9 -8 0" fill="#ce9b50" />
</g>
<g transform="translate(611 666) rotate(7)" >
<path d="M -8 0Q 0 -12 12 0Q 2 9 -8 0" fill="#ce9b50" />
</g>
<g transform="translate(917 681) rotate(14)" >
<path d="M -8 0Q 0 -12 12 0Q 2 9 -8 0" fill="#ce9b50" />
</g>
<g transform="translate(828 730) rotate(135)" >
<path d="M -8 0Q 0 -12 12 0Q 2 9 -8 0" fill="#ce9b50" />
</g>
<g transform="translate(366 759) rotate(59)" >
<path d="M -8 0Q 0 -12 12 0Q 2 9 -8 0" fill="#ce9b50" />
</g>
<g transform="translate(163 635) rotate(63)" >
<path d="M -8 0Q 0 -12 12 0Q 2 9 -8 0" fill="#ce9b50" />
</g>
<g transform="translate(672 671) rotate(68)" >
<path d="M -8 0Q 0 -12 12 0Q 2 9 -8 0" fill="#ce9b50" />
</g>
<g transform="translate(546 624) rotate(56)" >
<path d="M -8 0Q 0 -12 12 0Q 2 9 -8 0" fill="#ce9b50" />
</g>
<g transform="translate(589 709) rotate(90)" >
<path d="M -8 0Q 0 -12 12 0Q 2 9 -8 0" fill="#ce9b50" />
</g>
<g transform="translate(957 654) rotate(45)" >
<path d="M -8 0Q 0 -12 12 0Q 2 9 -8 0" fill="#ce9b50" />
</g>
<g transform="translate(242 691) rotate(178)" >
<path d="M -8 0Q 0 -12 12 0Q 2 9 -8 0" fill="#ce9b50" />
</g>
<g transform="translate(367 617) rotate(179)" >
<path d="M -8 0Q 0 -12 12 0Q 2 9 -8 0" fill="#ce9b50" />
</g>
<g transform="translate(360 755) rotate(144)" >
<path d="M -8 0Q 0 -12 12 0Q 2 9 -8 0" fill="#ce9b50" />
</g>
<g transform="translate(145 754) rotate(48)" >
<path d="M -8 0Q 0 -12 12 0Q 2 9 -8 0" fill="#ce9b50" />
</g>
<g transform="translate(856 736) rotate(138)" >
<path d="M -8 0Q 0 -12 12 0Q 2 9 -8 0" fill="#ce9b50" />
</g>
<g transform="translate(316 654) rotate(125)" >
<path d="M -8 0Q 0 -12 12 0Q 2 9 -8 0" fill="#ce9b50" />
</g>
<g transform="translate(38 633) rotate(14)" >
<path d="M -8 0Q 0 -12 12 0Q 2 9 -8 0" fill="#ce9b50" />
</g>
<g transform="translate(238 666) rotate(5)" >
<path d="M -8 0Q 0 -12 12 0Q 2 9 -8 0" fill="#ce9b50" />
</g>
<g transform="translate(539 732) rotate(0)" >
<path d="M -8 0Q 0 -12 12 0Q 2 9 -8 0" fill="#ce9b50" />
</g>
<g transform="translate(339 661) rotate(33)" >
<path d="M -8 0Q 0 -12 12 0Q 2 9 -8 0" fill="#ce9b50" />
</g>
<g transform="translate(348 655) rotate(82)" >
<path d="M -8 0Q 0 -12 12 0Q 2 9 -8 0" fill="#ce9b50" />
</g>
<g transform="translate(60 615) rotate(37)" >
<path d="M -8 0Q 0 -12 12 0Q 2 9 -8 0" fill="#ce9b50" />
</g>
<g transform="translate(600 646) rotate(28)" >
<path d="M -8 0Q 0 -12 12 0Q 2 9 -8 0" fill="#ce9b50" />
</g>
<g transform="translate(866 744) rotate(93)" >
<path d="M -8 0Q 0 -12 12 0Q 2 9 -8 0" fill="#ce9b50" />
</g>
<g transform="translate(74 705) rotate(169)" >
<path d="M -8 0Q 0 -12 12 0Q 2 9 -8 0" fill="#ce9b50" />
</g>
<g transform="translate(405 635) rotate(86)" >
<path d="M -8 0Q 0 -12 12 0Q 2 9 -8 0" fill="#ce9b50" />
</g>
<g transform="translate(309 692) rotate(34)" >
<path d="M -8 0Q 0 -12 12 0Q 2 9 -8 0" fill="#ce9b50" />
</g>
<g transform="translate(161 721) rotate(163)" >
<path d="M -8 0Q 0 -12 12 0Q 2 9 -8 0" fill="#ce9b50" />
</g>
<g transform="translate(498 691) rotate(44)" >
<path d="M -8 0Q 0 -12 12 0Q 2 9 -8 0" fill="#ce9b50" />
</g>
<g transform="translate(724 753) rotate(177)" >
<path d="M -8 0Q 0 -12 12 0Q 2 9 -8 0" fill="#ce9b50" />
</g>
<g transform="translate(910 701) rotate(57)" >
<path d="M -8 0Q 0 -12 12 0Q 2 9 -8 0" fill="#ce9b50" />
</g>
<g transform="translate(681 654) rotate(96)" >
<path d="M -8 0Q 0 -12 12 0Q 2 9 -8 0" fill="#ce9b50" />
</g>
<g transform="translate(314 685) rotate(32)" >
<path d="M -8 0Q 0 -12 12 0Q 2 9 -8 0" fill="#ce9b50" />
</g>
<g transform="translate(181 610) rotate(179)" >
<path d="M -8 0Q 0 -12 12 0Q 2 9 -8 0" fill="#ce9b50" />
</g>
<g transform="translate(586 710) rotate(145)" >
<path d="M -8 0Q 0 -12 12 0Q 2 9 -8 0" fill="#ce9b50" />
</g>
<g transform="translate(33 656) rotate(154)" >
<path d="M -8 0Q 0 -12 12 0Q 2 9 -8 0" fill="#ce9b50" />
</g>
<g transform="translate(325 666) rotate(163)" >
<path d="M -8 0Q 0 -12 12 0Q 2 9 -8 0" fill="#ce9b50" />
</g>
<g transform="translate(579 636) rotate(127)" >
<path d="M -8 0Q 0 -12 12 0Q 2 9 -8 0" fill="#ce9b50" />
</g>
<g transform="translate(144 694) rotate(19)" >
<path d="M -8 0Q 0 -12 12 0Q 2 9 -8 0" fill="#ce9b50" />
</g>
<g transform="translate(243 698) rotate(81)" >
<path d="M -8 0Q 0 -12 12 0Q 2 9 -8 0" fill="#ce9b50" />
</g>
<g transform="translate(171 632) rotate(171)" >
<path d="M -8 0Q 0 -12 12 0Q 2 9 -8 0" fill="#ce9b50" />
</g>
<g transform="translate(654 695) rotate(114)" >
<path d="M -8 0Q 0 -12 12 0Q 2 9 -8 0" fill="#ce9b50" />
</g>
<g transform="translate(11 677) rotate(53)" >
<path d="M -8 0Q 0 -12 12 0Q 2 9 -8 0" fill="#ce9b50" />
</g>
<g transform="translate(255 627) rotate(89)" >
<path d="M -8 0Q 0 -12 12 0Q 2 9 -8 0" fill="#ce9b50" />
</g>
<g transform="translate(262 637) rotate(0)" >
<path d="M -8 0Q 0 -12 12 0Q 2 9 -8 0" fill="#ce9b50" />
</g>
<g transform="translate(49 708) rotate(112)" >
<path d="M -8 0Q 0 -12 12 0Q 2 9 -8 0" fill="#ce9b50" />
</g>
<g transform="translate(750 717) rotate(42)" >
<path d="M -8 0Q 0 -12 12 0Q 2 9 -8 0" fill="#ce9b50" />
</g>
<g transform="translate(905 715) rotate(126)" >
<path d="M -8 0Q 0 -12 12 0Q 2 9 -8 0" fill="#ce9b50" />
</g>
<g transform="translate(902 706) rotate(89)" >
<path d="M -8 0Q 0 -12 12 0Q 2 9 -8 0" fill="#ce9b50" />
</g>
<g transform="translate(559 706) rotate(25)" >
<path d="M -8 0Q 0 -12 12 0Q 2 9 -8 0" fill="#ce9b50" />
</g>
<g transform="translate(848 732) rotate(147)" >
<path d="M -8 0Q 0 -12 12 0Q 2 9 -8 0" fill="#ce9b50" />
</g>
<g transform="translate(666 667) rotate(41)" >
<path d="M -8 0Q 0 -12 12 0Q 2 9 -8 0" fill="#ce9b50" />
</g>
<g transform="translate(462 628) rotate(8)" >
<path d="M -8 0Q 0 -12 12 0Q 2 9 -8 0" fill="#ce9b50" />
</g>
<g transform="translate(301 615) rotate(81)" >
<path d="M -8 0Q 0 -12 12 0Q 2 9 -8 0" fill="#ce9b50" />
</g>
<g transform="translate(267 636) rotate(18)" >
<path d="M -8 0Q 0 -12 12 0Q 2 9 -8 0" fill="#ce9b50" />
</g>
<g transform="translate(350 653) rotate(96)" >
<path d="M -8 0Q 0 -12 12 0Q 2 9 -8 0" fill="#ce9b50" />
</g>
<g transform="translate(164 629) rotate(140)" >
<path d="M -8 0Q 0 -12 12 0Q 2 9 -8 0" fill="#ce9b50" />
</g>
<g transform="translate(919 633) rotate(86)" >
<path d="M -8 0Q 0 -12 12 0Q 2 9 -8 0" fill="#ce9b50" />
</g>
<g transform="translate(608 733) rotate(7)" >
<path d="M -8 0Q 0 -12 12 0Q 2 9 -8 0" fill="#ce9b50" />
</g>
<g transform="translate(441 652) rotate(155)" >
<path d="M -8 0Q 0 -12 12 0Q 2 9 -8 0" fill="#ce9b50" />
</g>
<g transform="translate(911 721) rotate(40)" >
<path d="M -8 0Q 0 -12 12 0Q 2 9 -8 0" fill="#ce9b50" />
</g>
<g transform="translate(54 635) rotate(84)" >
<path d="M -8 0Q 0 -12 12 0Q 2 9 -8 0" fill="#ce9b50" />
</g>
<g transform="translate(210 658) rotate(104)" >
<path d="M -8 0Q 0 -12 12 0Q 2 9 -8 0" fill="#ce9b50" />
</g>
<g transform="translate(713 751) rotate(138)" >
<path d="M -8 0Q 0 -12 12 0Q 2 9 -8 0" fill="#ce9b50" />
</g>
<g transform="translate(271 682) rotate(76)" >
<path d="M -8 0Q 0 -12 12 0Q 2 9 -8 0" fill="#ce9b50" />
</g>
<g transform="translate(243 634) rotate(12)" >
<path d="M -8 0Q 0 -12 12 0Q 2 9 -8 0" fill="#ce9b50" />
</g>
<g transform="translate(402 756) rotate(140)" >
<path d="M -8 0Q 0 -12 12 0Q 2 9 -8 0" fill="#ce9b50" />
</g>
<g transform="translate(860 735) rotate(39)" >
<path d="M -8 0Q 0 -12 12 0Q 2 9 -8 0" fill="#ce9b50" />
</g>
<path d="M 363 532C 223 574 136 521 156 428C 169 364 245 313 234 253C 229 229 206 215 213 195C 287 193 337 259 309 332C 283 404 251 449 292 460L 391 466Z" fill="url(#squirrel)" stroke="#70422c" stroke-width="3" stroke-linecap="round" stroke-linejoin="round" />
<path d="M 216 220C 288 276 268 316 225 379Q 163 479 276 510" fill="none" stroke="#e8b775" stroke-width="13" stroke-linecap="round" stroke-linejoin="round" />
<path d="M 351 504L 324 641Q 318 668 352 671L 402 655L 416 533Z" fill="url(#squirrel)" stroke="#70422c" stroke-width="3" stroke-linecap="round" stroke-linejoin="round" />
<path d="M 412 525L 442 626L 483 647Q 496 665 467 674L 416 659L 383 552Z" fill="url(#squirrel)" stroke="#70422c" stroke-width="3" stroke-linecap="round" stroke-linejoin="round" />
<path d="M 342 360Q 294 426 323 535Q 380 581 449 546Q 471 452 420 370Z" fill="#687d7a" stroke="#3f5655" stroke-width="3" stroke-linecap="round" stroke-linejoin="round" />
<path d="M 352 375L 428 381L 443 540Q 391 563 336 538Z" fill="#a8b3a0" />
<path d="M 324 293L 324 226L 356 257Q 387 244 414 259L 445 221L 447 287Q 474 309 457 344L 483 357Q 488 375 462 377Q 423 411 373 387Q 326 368 324 293Z" fill="url(#squirrel)" stroke="#70422c" stroke-width="3" stroke-linecap="round" stroke-linejoin="round" />
<path d="M 338 244l 3 35l 14 -15M 436 242l -16 28l 20 10" fill="#cb8c66" />
<path d="M 407 340Q 439 327 466 351L 477 364Q 457 386 425 375Z" fill="#edcc96" />
<ellipse cx="430" cy="309" rx="10" ry="12" fill="#a07b59" />
<ellipse cx="430" cy="309" rx="7" ry="9" fill="#172226" />
<ellipse cx="428" cy="306" rx="2.8" ry="3.3" fill="#fff7dc" />
<ellipse cx="478" cy="354" rx="8" ry="6" fill="#3b3530" />
<path d="M 467 366q -7 9 -19 6" fill="none" stroke="#8b5a3b" stroke-width="2" stroke-linecap="round" stroke-linejoin="round" />
<path d="M 630 284L 556 711M 630 284L 739 703M 647 427L 808 676" fill="none" stroke="#75553c" stroke-width="11" stroke-linecap="round" stroke-linejoin="round" />
<path d="M 562 568L 742 546" fill="none" stroke="#caa06c" stroke-width="12" stroke-linecap="round" stroke-linejoin="round" />
<path d="M 554 292L 722 270L 748 533L 579 553Z" fill="#e9d9ad" stroke="#765d42" stroke-width="5" stroke-linecap="round" stroke-linejoin="round" />
<path d="M 565 303L 713 284L 734 524L 589 539Z" fill="#b9d1c3" />
<path d="M 579 413Q 629 355 724 395L 734 524L 589 539Z" fill="#7f9977" />
<path d="M 586 474Q 647 422 729 451L 734 524L 589 539Z" fill="#c0a36a" />
<path d="M 607 510l -10 -156m 5 60l -24 -30m 23 10l 20 -38" fill="none" stroke="#8c7451" stroke-width="5" stroke-linecap="round" stroke-linejoin="round" />
<ellipse cx="598" cy="359" rx="27" ry="31" fill="#cf994d" />
<path d="M 678 510l -10 -156m 5 60l -24 -30m 23 10l 20 -38" fill="none" stroke="#8c7451" stroke-width="5" stroke-linecap="round" stroke-linejoin="round" />
<ellipse cx="669" cy="359" rx="27" ry="31" fill="#cf994d" />
<path d="M 705 510l -10 -156m 5 60l -24 -30m 23 10l 20 -38" fill="none" stroke="#8c7451" stroke-width="5" stroke-linecap="round" stroke-linejoin="round" />
<ellipse cx="696" cy="359" rx="27" ry="31" fill="#cf994d" />
<path d="M 418 405Q 449 396 465 420L 514 385L 528 403L 472 448Q 449 454 429 432Z" fill="url(#squirrel)" stroke="#70422c" stroke-width="3" stroke-linecap="round" stroke-linejoin="round" />
<ellipse cx="521" cy="392" rx="16" ry="12" fill="url(#squirrel)" stroke="#70422c" stroke-width="2" />
<path d="M 518 395L 604 367" fill="none" stroke="#5e4a35" stroke-width="5" stroke-linecap="round" />
<path d="M 596 367L 616 360L 606 373Z" fill="#aa693c" />
<path d="M 336 420Q 314 452 350 475L 412 474L 416 456L 360 451Z" fill="url(#squirrel)" stroke="#70422c" stroke-width="3" stroke-linecap="round" stroke-linejoin="round" />
<g transform="translate(424 476) rotate(-12)" >
<ellipse cx="0" cy="0" rx="64" ry="25" fill="#c8a174" stroke="#795c40" stroke-width="2" />
<ellipse cx="-28" cy="0" rx="10" ry="8" fill="#687d7a" />
<ellipse cx="-9" cy="-7" rx="8" ry="5" fill="#8c4933" />
<ellipse cx="12" cy="-7" rx="8" ry="5" fill="#d5b64f" />
<ellipse cx="33" cy="-7" rx="8" ry="5" fill="#638579" />
<ellipse cx="48" cy="-7" rx="8" ry="5" fill="#e9d7ad" />
</g>
</svg>
