<svg xmlns="http://www.w3.org/2000/svg" width="960" height="760" viewBox="0 0 960 760">
<defs>
<linearGradient id="wood" x1="0" y1="0" x2="1" y2="1">
<stop stop-color="#c28a56"/>
<stop offset="1" stop-color="#69422d"/>
</linearGradient>
<linearGradient id="clay" x1="0" y1="0" x2="1" y2="1">
<stop stop-color="#eda782"/>
<stop offset="1" stop-color="#994f3e"/>
</linearGradient>
<radialGradient id="otter" cx=".32" cy=".25" r=".82">
<stop stop-color="#ab7853"/>
<stop offset="1" stop-color="#5b4036"/>
</radialGradient>
<radialGradient id="cream" cx=".32" cy=".25" r=".82">
<stop stop-color="#fff0cb"/>
<stop offset="1" stop-color="#c6a782"/>
</radialGradient>
<linearGradient id="apron" x1="0" y1="0" x2="1" y2="1">
<stop stop-color="#7caaaa"/>
<stop offset="1" stop-color="#326469"/>
</linearGradient>
<linearGradient id="brass" x1="0" y1="0" x2="1" y2="1">
<stop stop-color="#ffe3a0"/>
<stop offset="1" stop-color="#966123"/>
</linearGradient>
<radialGradient id="eye" cx=".32" cy=".25" r=".82">
<stop stop-color="#654e37"/>
<stop offset="1" stop-color="#171e22"/>
</radialGradient>
<linearGradient id="leaf" x1="0" y1="0" x2="1" y2="1">
<stop stop-color="#a9c766"/>
<stop offset="1" stop-color="#347557"/>
</linearGradient>
<linearGradient id="ocean" x1="0" y1="0" x2="0" y2="1">
<stop stop-color="#70cdc7"/>
<stop offset="1" stop-color="#124d77"/>
</linearGradient>
<radialGradient id="shell" cx=".32" cy=".25" r=".82">
<stop stop-color="#a7aa68"/>
<stop offset="1" stop-color="#365e53"/>
</radialGradient>
<linearGradient id="turtle" x1="0" y1="0" x2="1" y2="1">
<stop stop-color="#ced690"/>
<stop offset="1" stop-color="#608e78"/>
</linearGradient>
</defs>
<rect x="0" y="0" width="960" height="760" rx="0" fill="url(#ocean)"/>
<path d="M 85 0L 120 0L 345 620L 105 620Z" fill="#d4f3ca" opacity=".095"/>
<path d="M 290 0L 325 0L 550 620L 310 620Z" fill="#d4f3ca" opacity=".095"/>
<path d="M 505 0L 540 0L 765 620L 525 620Z" fill="#d4f3ca" opacity=".095"/>
<path d="M 739 0L 774 0L 999 620L 759 620Z" fill="#d4f3ca" opacity=".095"/>
<ellipse cx="423" cy="204" rx="5" ry="2" fill="none" stroke="#a5ded1" stroke-width="1" opacity=".5"/>
<ellipse cx="697" cy="429" rx="3" ry="2" fill="none" stroke="#a5ded1" stroke-width="1" opacity=".5"/>
<ellipse cx="563" cy="115" rx="5" ry="5" fill="none" stroke="#a5ded1" stroke-width="1" opacity=".5"/>
<ellipse cx="488" cy="368" rx="3" ry="4" fill="none" stroke="#a5ded1" stroke-width="1" opacity=".5"/>
<ellipse cx="328" cy="181" rx="2" ry="2" fill="none" stroke="#a5ded1" stroke-width="1" opacity=".5"/>
<ellipse cx="667" cy="328" rx="3" ry="2" fill="none" stroke="#a5ded1" stroke-width="1" opacity=".5"/>
<ellipse cx="935" cy="124" rx="5" ry="3" fill="none" stroke="#a5ded1" stroke-width="1" opacity=".5"/>
<ellipse cx="956" cy="53" rx="5" ry="5" fill="none" stroke="#a5ded1" stroke-width="1" opacity=".5"/>
<ellipse cx="190" cy="418" rx="4" ry="2" fill="none" stroke="#a5ded1" stroke-width="1" opacity=".5"/>
<ellipse cx="9" cy="187" rx="2" ry="4" fill="none" stroke="#a5ded1" stroke-width="1" opacity=".5"/>
<ellipse cx="291" cy="267" rx="5" ry="3" fill="none" stroke="#a5ded1" stroke-width="1" opacity=".5"/>
<ellipse cx="871" cy="293" rx="5" ry="4" fill="none" stroke="#a5ded1" stroke-width="1" opacity=".5"/>
<ellipse cx="197" cy="449" rx="2" ry="4" fill="none" stroke="#a5ded1" stroke-width="1" opacity=".5"/>
<ellipse cx="166" cy="409" rx="5" ry="4" fill="none" stroke="#a5ded1" stroke-width="1" opacity=".5"/>
<ellipse cx="735" cy="130" rx="2" ry="4" fill="none" stroke="#a5ded1" stroke-width="1" opacity=".5"/>
<ellipse cx="809" cy="186" rx="3" ry="3" fill="none" stroke="#a5ded1" stroke-width="1" opacity=".5"/>
<ellipse cx="625" cy="473" rx="5" ry="5" fill="none" stroke="#a5ded1" stroke-width="1" opacity=".5"/>
<ellipse cx="527" cy="202" rx="2" ry="5" fill="none" stroke="#a5ded1" stroke-width="1" opacity=".5"/>
<ellipse cx="685" cy="83" rx="3" ry="3" fill="none" stroke="#a5ded1" stroke-width="1" opacity=".5"/>
<ellipse cx="488" cy="200" rx="3" ry="2" fill="none" stroke="#a5ded1" stroke-width="1" opacity=".5"/>
<ellipse cx="267" cy="231" rx="3" ry="5" fill="none" stroke="#a5ded1" stroke-width="1" opacity=".5"/>
<ellipse cx="771" cy="171" rx="4" ry="4" fill="none" stroke="#a5ded1" stroke-width="1" opacity=".5"/>
<ellipse cx="596" cy="405" rx="2" ry="4" fill="none" stroke="#a5ded1" stroke-width="1" opacity=".5"/>
<ellipse cx="669" cy="219" rx="3" ry="2" fill="none" stroke="#a5ded1" stroke-width="1" opacity=".5"/>
<ellipse cx="683" cy="95" rx="5" ry="4" fill="none" stroke="#a5ded1" stroke-width="1" opacity=".5"/>
<ellipse cx="163" cy="242" rx="4" ry="2" fill="none" stroke="#a5ded1" stroke-width="1" opacity=".5"/>
<ellipse cx="654" cy="186" rx="4" ry="3" fill="none" stroke="#a5ded1" stroke-width="1" opacity=".5"/>
<path d="M 0 560Q 208 455 393 569T 729 539T 960 506V 760H 0Z" fill="#377b82" />
<path d="M 0 650Q 153 566 334 650T 691 612T 960 622V 760H 0Z" fill="#b9bb97" />
<g transform="translate(84 670) scale(1.2)" >
<path d="M 0 0Q -19.659649062935802 -65 -65.53216354311934 -77.43281890739124M -39.319298125871605 -52.654316857026046q -30 -9 -29 -41M -47.83847938647712 -61.94625512591299q 27 -4 26 -35" fill="none" stroke="#c57f86" stroke-width="12" stroke-linecap="round" stroke-linejoin="round" />
<path d="M 2 -5Q -17.659649062935802 -65 -63.53216354311934 -77.43281890739124" fill="none" stroke="#efb2a0" stroke-width="2" stroke-linecap="round" stroke-linejoin="round" />
<path d="M 0 0Q -10.895771993749122 -65 -36.31923997916374 -120.28588076542967M -21.791543987498244 -81.79439892049218q -30 -9 -29 -41M -26.51304518478953 -96.22870461234373q 27 -4 26 -35" fill="none" stroke="#c57f86" stroke-width="12" stroke-linecap="round" stroke-linejoin="round" />
<path d="M 2 -5Q -8.895771993749122 -65 -34.31923997916374 -120.28588076542967" fill="none" stroke="#efb2a0" stroke-width="2" stroke-linecap="round" stroke-linejoin="round" />
<path d="M 0 0Q 0.0 -65 0.0 -135.0M 0.0 -91.80000000000001q -30 -9 -29 -41M 0.0 -108.0q 27 -4 26 -35" fill="none" stroke="#c57f86" stroke-width="12" stroke-linecap="round" stroke-linejoin="round" />
<path d="M 2 -5Q 2.0 -65 2.0 -135.0" fill="none" stroke="#efb2a0" stroke-width="2" stroke-linecap="round" stroke-linejoin="round" />
<path d="M 0 0Q 10.895771993749122 -65 36.31923997916374 -120.28588076542967M 21.791543987498244 -81.79439892049218q -30 -9 -29 -41M 26.51304518478953 -96.22870461234373q 27 -4 26 -35" fill="none" stroke="#c57f86" stroke-width="12" stroke-linecap="round" stroke-linejoin="round" />
<path d="M 2 -5Q 12.895771993749122 -65 38.31923997916374 -120.28588076542967" fill="none" stroke="#efb2a0" stroke-width="2" stroke-linecap="round" stroke-linejoin="round" />
<path d="M 0 0Q 19.659649062935802 -65 65.53216354311934 -77.43281890739124M 39.319298125871605 -52.654316857026046q -30 -9 -29 -41M 47.83847938647712 -61.94625512591299q 27 -4 26 -35" fill="none" stroke="#c57f86" stroke-width="12" stroke-linecap="round" stroke-linejoin="round" />
<path d="M 2 -5Q 21.659649062935802 -65 67.53216354311934 -77.43281890739124" fill="none" stroke="#efb2a0" stroke-width="2" stroke-linecap="round" stroke-linejoin="round" />
</g>
<g transform="translate(834 659) scale(1.25)" >
<path d="M 0 0Q -19.659649062935802 -65 -65.53216354311934 -77.43281890739124M -39.319298125871605 -52.654316857026046q -30 -9 -29 -41M -47.83847938647712 -61.94625512591299q 27 -4 26 -35" fill="none" stroke="#e99279" stroke-width="12" stroke-linecap="round" stroke-linejoin="round" />
<path d="M 2 -5Q -17.659649062935802 -65 -63.53216354311934 -77.43281890739124" fill="none" stroke="#efb2a0" stroke-width="2" stroke-linecap="round" stroke-linejoin="round" />
<path d="M 0 0Q -10.895771993749122 -65 -36.31923997916374 -120.28588076542967M -21.791543987498244 -81.79439892049218q -30 -9 -29 -41M -26.51304518478953 -96.22870461234373q 27 -4 26 -35" fill="none" stroke="#e99279" stroke-width="12" stroke-linecap="round" stroke-linejoin="round" />
<path d="M 2 -5Q -8.895771993749122 -65 -34.31923997916374 -120.28588076542967" fill="none" stroke="#efb2a0" stroke-width="2" stroke-linecap="round" stroke-linejoin="round" />
<path d="M 0 0Q 0.0 -65 0.0 -135.0M 0.0 -91.80000000000001q -30 -9 -29 -41M 0.0 -108.0q 27 -4 26 -35" fill="none" stroke="#e99279" stroke-width="12" stroke-linecap="round" stroke-linejoin="round" />
<path d="M 2 -5Q 2.0 -65 2.0 -135.0" fill="none" stroke="#efb2a0" stroke-width="2" stroke-linecap="round" stroke-linejoin="round" />
<path d="M 0 0Q 10.895771993749122 -65 36.31923997916374 -120.28588076542967M 21.791543987498244 -81.79439892049218q -30 -9 -29 -41M 26.51304518478953 -96.22870461234373q 27 -4 26 -35" fill="none" stroke="#e99279" stroke-width="12" stroke-linecap="round" stroke-linejoin="round" />
<path d="M 2 -5Q 12.895771993749122 -65 38.31923997916374 -120.28588076542967" fill="none" stroke="#efb2a0" stroke-width="2" stroke-linecap="round" stroke-linejoin="round" />
<path d="M 0 0Q 19.659649062935802 -65 65.53216354311934 -77.43281890739124M 39.319298125871605 -52.654316857026046q -30 -9 -29 -41M 47.83847938647712 -61.94625512591299q 27 -4 26 -35" fill="none" stroke="#e99279" stroke-width="12" stroke-linecap="round" stroke-linejoin="round" />
<path d="M 2 -5Q 21.659649062935802 -65 67.53216354311934 -77.43281890739124" fill="none" stroke="#efb2a0" stroke-width="2" stroke-linecap="round" stroke-linejoin="round" />
</g>
<g transform="translate(249 691) scale(0.8)" >
<path d="M 0 0Q -19.659649062935802 -65 -65.53216354311934 -77.43281890739124M -39.319298125871605 -52.654316857026046q -30 -9 -29 -41M -47.83847938647712 -61.94625512591299q 27 -4 26 -35" fill="none" stroke="#c96c73" stroke-width="12" stroke-linecap="round" stroke-linejoin="round" />
<path d="M 2 -5Q -17.659649062935802 -65 -63.53216354311934 -77.43281890739124" fill="none" stroke="#efb2a0" stroke-width="2" stroke-linecap="round" stroke-linejoin="round" />
<path d="M 0 0Q -10.895771993749122 -65 -36.31923997916374 -120.28588076542967M -21.791543987498244 -81.79439892049218q -30 -9 -29 -41M -26.51304518478953 -96.22870461234373q 27 -4 26 -35" fill="none" stroke="#c96c73" stroke-width="12" stroke-linecap="round" stroke-linejoin="round" />
<path d="M 2 -5Q -8.895771993749122 -65 -34.31923997916374 -120.28588076542967" fill="none" stroke="#efb2a0" stroke-width="2" stroke-linecap="round" stroke-linejoin="round" />
<path d="M 0 0Q 0.0 -65 0.0 -135.0M 0.0 -91.80000000000001q -30 -9 -29 -41M 0.0 -108.0q 27 -4 26 -35" fill="none" stroke="#c96c73" stroke-width="12" stroke-linecap="round" stroke-linejoin="round" />
<path d="M 2 -5Q 2.0 -65 2.0 -135.0" fill="none" stroke="#efb2a0" stroke-width="2" stroke-linecap="round" stroke-linejoin="round" />
<path d="M 0 0Q 10.895771993749122 -65 36.31923997916374 -120.28588076542967M 21.791543987498244 -81.79439892049218q -30 -9 -29 -41M 26.51304518478953 -96.22870461234373q 27 -4 26 -35" fill="none" stroke="#c96c73" stroke-width="12" stroke-linecap="round" stroke-linejoin="round" />
<path d="M 2 -5Q 12.895771993749122 -65 38.31923997916374 -120.28588076542967" fill="none" stroke="#efb2a0" stroke-width="2" stroke-linecap="round" stroke-linejoin="round" />
<path d="M 0 0Q 19.659649062935802 -65 65.53216354311934 -77.43281890739124M 39.319298125871605 -52.654316857026046q -30 -9 -29 -41M 47.83847938647712 -61.94625512591299q 27 -4 26 -35" fill="none" stroke="#c96c73" stroke-width="12" stroke-linecap="round" stroke-linejoin="round" />
<path d="M 2 -5Q 21.659649062935802 -65 67.53216354311934 -77.43281890739124" fill="none" stroke="#efb2a0" stroke-width="2" stroke-linecap="round" stroke-linejoin="round" />
</g>
<g transform="translate(732 715) scale(0.75)" >
<path d="M 0 0Q -19.659649062935802 -65 -65.53216354311934 -77.43281890739124M -39.319298125871605 -52.654316857026046q -30 -9 -29 -41M -47.83847938647712 -61.94625512591299q 27 -4 26 -35" fill="none" stroke="#977fa2" stroke-width="12" stroke-linecap="round" stroke-linejoin="round" />
<path d="M 2 -5Q -17.659649062935802 -65 -63.53216354311934 -77.43281890739124" fill="none" stroke="#efb2a0" stroke-width="2" stroke-linecap="round" stroke-linejoin="round" />
<path d="M 0 0Q -10.895771993749122 -65 -36.31923997916374 -120.28588076542967M -21.791543987498244 -81.79439892049218q -30 -9 -29 -41M -26.51304518478953 -96.22870461234373q 27 -4 26 -35" fill="none" stroke="#977fa2" stroke-width="12" stroke-linecap="round" stroke-linejoin="round" />
<path d="M 2 -5Q -8.895771993749122 -65 -34.31923997916374 -120.28588076542967" fill="none" stroke="#efb2a0" stroke-width="2" stroke-linecap="round" stroke-linejoin="round" />
<path d="M 0 0Q 0.0 -65 0.0 -135.0M 0.0 -91.80000000000001q -30 -9 -29 -41M 0.0 -108.0q 27 -4 26 -35" fill="none" stroke="#977fa2" stroke-width="12" stroke-linecap="round" stroke-linejoin="round" />
<path d="M 2 -5Q 2.0 -65 2.0 -135.0" fill="none" stroke="#efb2a0" stroke-width="2" stroke-linecap="round" stroke-linejoin="round" />
<path d="M 0 0Q 10.895771993749122 -65 36.31923997916374 -120.28588076542967M 21.791543987498244 -81.79439892049218q -30 -9 -29 -41M 26.51304518478953 -96.22870461234373q 27 -4 26 -35" fill="none" stroke="#977fa2" stroke-width="12" stroke-linecap="round" stroke-linejoin="round" />
<path d="M 2 -5Q 12.895771993749122 -65 38.31923997916374 -120.28588076542967" fill="none" stroke="#efb2a0" stroke-width="2" stroke-linecap="round" stroke-linejoin="round" />
<path d="M 0 0Q 19.659649062935802 -65 65.53216354311934 -77.43281890739124M 39.319298125871605 -52.654316857026046q -30 -9 -29 -41M 47.83847938647712 -61.94625512591299q 27 -4 26 -35" fill="none" stroke="#977fa2" stroke-width="12" stroke-linecap="round" stroke-linejoin="round" />
<path d="M 2 -5Q 21.659649062935802 -65 67.53216354311934 -77.43281890739124" fill="none" stroke="#efb2a0" stroke-width="2" stroke-linecap="round" stroke-linejoin="round" />
</g>
<path d="M 7 755Q -37 685 13 558Q 2 637 35 681Q 52 603 78 571Q 36 693 41 755Z" fill="#326c63" />
<path d="M 144 755Q 100 685 150 558Q 139 637 172 681Q 189 603 215 571Q 173 693 178 755Z" fill="#326c63" />
<path d="M 183 755Q 139 685 189 558Q 178 637 211 681Q 228 603 254 571Q 212 693 217 755Z" fill="#326c63" />
<path d="M 891 755Q 847 685 897 558Q 886 637 919 681Q 936 603 962 571Q 920 693 925 755Z" fill="#326c63" />
<path d="M 929 755Q 885 685 935 558Q 924 637 957 681Q 974 603 1000 571Q 958 693 963 755Z" fill="#326c63" />
<path d="M 489 283C 484 221 532 164 611 144Q 645 144 616 172L 544 289Z" fill="url(#turtle)" stroke="#315e58" stroke-width="3" stroke-linecap="round" stroke-linejoin="round" />
<path d="M 302 349Q 231 322 188 348Q 200 378 281 406Z" fill="url(#turtle)" stroke="#315e58" stroke-width="3" stroke-linecap="round" stroke-linejoin="round" />
<path d="M 297 332Q 226 307 211 321L 269 354Z" fill="#6c967a" stroke="#315e58" stroke-width="3" stroke-linecap="round" stroke-linejoin="round" />
<path d="M 291 290C 348 209 487 210 570 279C 630 329 609 413 545 450C 452 503 327 457 292 395Q 262 342 291 290Z" fill="url(#shell)" stroke="#244d4d" stroke-width="5" stroke-linecap="round" stroke-linejoin="round" />
<path d="M 303 295C 363 233 476 233 553 288Q 608 348 548 422Q 440 490 323 408Q 288 362 303 295Z" fill="#a7ae72" stroke="#d3cd91" stroke-width="4" stroke-linecap="round" stroke-linejoin="round" />
<path d="M 394 255L 467 256L 502 307L 465 347L 399 333L 369 286Z" fill="#77906a" stroke="#d4cb8e" stroke-width="3" stroke-linecap="round" stroke-linejoin="round" />
<path d="M 399 333L 465 347L 476 403L 410 438L 361 397Z" fill="#77906a" stroke="#d4cb8e" stroke-width="3" stroke-linecap="round" stroke-linejoin="round" />
<path d="M 369 286L 399 333L 361 397L 315 368L 312 314Z" fill="#6e8c66" stroke="#d4cb8e" stroke-width="3" stroke-linecap="round" stroke-linejoin="round" />
<path d="M 502 307L 564 308L 586 353L 549 400L 476 403L 465 347Z" fill="#77906a" stroke="#d4cb8e" stroke-width="3" stroke-linecap="round" stroke-linejoin="round" />
<path d="M 394 255L 369 286L 312 314L 335 277Z" fill="#6e8c66" stroke="#d4cb8e" stroke-width="3" stroke-linecap="round" stroke-linejoin="round" />
<path d="M 467 256L 536 277L 564 308L 502 307Z" fill="#91a06a" stroke="#d4cb8e" stroke-width="3" stroke-linecap="round" stroke-linejoin="round" />
<path d="M 315 368L 361 397L 410 438L 358 433L 326 405Z" fill="#6e8c66" stroke="#d4cb8e" stroke-width="3" stroke-linecap="round" stroke-linejoin="round" />
<path d="M 410 438L 476 403L 549 400L 519 435L 462 453Z" fill="#6e8c66" stroke="#d4cb8e" stroke-width="3" stroke-linecap="round" stroke-linejoin="round" />
<path d="M 346 280Q 421 237 491 276" fill="none" stroke="#c4c38b" stroke-width="6" stroke-linecap="round" stroke-linejoin="round" />
<path d="M 563 335Q 605 315 638 324C 678 289 738 304 754 344Q 773 382 735 404Q 687 423 647 387L 594 399Z" fill="url(#turtle)" stroke="#315e58" stroke-width="3" stroke-linecap="round" stroke-linejoin="round" />
<path d="M 703 377Q 727 392 753 369" fill="none" stroke="#3e665b" stroke-width="2.5" stroke-linecap="round" stroke-linejoin="round" />
<ellipse cx="719" cy="343" rx="11" ry="12" fill="#a07b59" />
<ellipse cx="719" cy="343" rx="8" ry="9" fill="#172226" />
<ellipse cx="717" cy="340" rx="2.8" ry="3.3" fill="#fff7dc" />
<ellipse cx="752" cy="353" rx="3" ry="2" fill="#426856" />
<path d="M 429 408C 461 433 480 469 465 504Q 430 575 345 603Q 327 605 340 585L 388 479L 387 432Z" fill="url(#turtle)" stroke="#315e58" stroke-width="3" stroke-linecap="round" stroke-linejoin="round" />
<path d="M 398 457Q 414 489 361 573" fill="none" stroke="#b7c98e" stroke-width="4" stroke-linecap="round" stroke-linejoin="round" />
<ellipse cx="658" cy="340" rx="7" ry="5" fill="#658a6c" stroke="#b8c590" stroke-width="1" />
<ellipse cx="676" cy="331" rx="7" ry="5" fill="#658a6c" stroke="#b8c590" stroke-width="1" />
<ellipse cx="696" cy="322" rx="7" ry="5" fill="#658a6c" stroke="#b8c590" stroke-width="1" />
<ellipse cx="677" cy="351" rx="7" ry="5" fill="#658a6c" stroke="#b8c590" stroke-width="1" />
<ellipse cx="696" cy="366" rx="7" ry="5" fill="#658a6c" stroke="#b8c590" stroke-width="1" />
<ellipse cx="723" cy="388" rx="7" ry="5" fill="#658a6c" stroke="#b8c590" stroke-width="1" />
<ellipse cx="625" cy="356" rx="7" ry="5" fill="#658a6c" stroke="#b8c590" stroke-width="1" />
<ellipse cx="634" cy="375" rx="7" ry="5" fill="#658a6c" stroke="#b8c590" stroke-width="1" />
<ellipse cx="411" cy="454" rx="7" ry="5" fill="#658a6c" stroke="#b8c590" stroke-width="1" />
<ellipse cx="427" cy="475" rx="7" ry="5" fill="#658a6c" stroke="#b8c590" stroke-width="1" />
<ellipse cx="416" cy="500" rx="7" ry="5" fill="#658a6c" stroke="#b8c590" stroke-width="1" />
<ellipse cx="395" cy="533" rx="7" ry="5" fill="#658a6c" stroke="#b8c590" stroke-width="1" />
<ellipse cx="377" cy="557" rx="7" ry="5" fill="#658a6c" stroke="#b8c590" stroke-width="1" />
<g transform="translate(770 232) scale(0.8 0.8)" >
<path d="M -24 0L -42 -19L -39 20Z" fill="#f5c15d" />
<path d="M -27 0Q 0 -26 32 0Q 1 23 -27 0Z" fill="#f5c15d" stroke="#376a72" stroke-width="1.5" stroke-linecap="round" stroke-linejoin="round" />
<ellipse cx="21" cy="-3" rx="3" ry="3" fill="#233f50" />
<path d="M -6 -14L -1 12M 4 -14L 9 10" fill="none" stroke="#f8e7b0" stroke-width="3" stroke-linecap="round" stroke-linejoin="round" />
</g>
<g transform="translate(830 259) scale(0.62 0.62)" >
<path d="M -24 0L -42 -19L -39 20Z" fill="#ef9570" />
<path d="M -27 0Q 0 -26 32 0Q 1 23 -27 0Z" fill="#ef9570" stroke="#376a72" stroke-width="1.5" stroke-linecap="round" stroke-linejoin="round" />
<ellipse cx="21" cy="-3" rx="3" ry="3" fill="#233f50" />
<path d="M -6 -14L -1 12M 4 -14L 9 10" fill="none" stroke="#f8e7b0" stroke-width="3" stroke-linecap="round" stroke-linejoin="round" />
</g>
<g transform="translate(871 215) scale(0.5 0.5)" >
<path d="M -24 0L -42 -19L -39 20Z" fill="#eccc77" />
<path d="M -27 0Q 0 -26 32 0Q 1 23 -27 0Z" fill="#eccc77" stroke="#376a72" stroke-width="1.5" stroke-linecap="round" stroke-linejoin="round" />
<ellipse cx="21" cy="-3" rx="3" ry="3" fill="#233f50" />
<path d="M -6 -14L -1 12M 4 -14L 9 10" fill="none" stroke="#f8e7b0" stroke-width="3" stroke-linecap="round" stroke-linejoin="round" />
</g>
<g transform="translate(174 369) scale(-0.75 0.75)" >
<path d="M -24 0L -42 -19L -39 20Z" fill="#91d7d1" />
<path d="M -27 0Q 0 -26 32 0Q 1 23 -27 0Z" fill="#91d7d1" stroke="#376a72" stroke-width="1.5" stroke-linecap="round" stroke-linejoin="round" />
<ellipse cx="21" cy="-3" rx="3" ry="3" fill="#233f50" />
<path d="M -6 -14L -1 12M 4 -14L 9 10" fill="none" stroke="#f8e7b0" stroke-width="3" stroke-linecap="round" stroke-linejoin="round" />
</g>
<g transform="translate(117 408) scale(-0.58 0.58)" >
<path d="M -24 0L -42 -19L -39 20Z" fill="#d2d8a5" />
<path d="M -27 0Q 0 -26 32 0Q 1 23 -27 0Z" fill="#d2d8a5" stroke="#376a72" stroke-width="1.5" stroke-linecap="round" stroke-linejoin="round" />
<ellipse cx="21" cy="-3" rx="3" ry="3" fill="#233f50" />
<path d="M -6 -14L -1 12M 4 -14L 9 10" fill="none" stroke="#f8e7b0" stroke-width="3" stroke-linecap="round" stroke-linejoin="round" />
</g>
<g transform="translate(620 522) scale(0.65 0.65)" >
<path d="M -24 0L -42 -19L -39 20Z" fill="#efbb57" />
<path d="M -27 0Q 0 -26 32 0Q 1 23 -27 0Z" fill="#efbb57" stroke="#376a72" stroke-width="1.5" stroke-linecap="round" stroke-linejoin="round" />
<ellipse cx="21" cy="-3" rx="3" ry="3" fill="#233f50" />
<path d="M -6 -14L -1 12M 4 -14L 9 10" fill="none" stroke="#f8e7b0" stroke-width="3" stroke-linecap="round" stroke-linejoin="round" />
</g>
<g transform="translate(683 539) scale(0.5 0.5)" >
<path d="M -24 0L -42 -19L -39 20Z" fill="#ef9b60" />
<path d="M -27 0Q 0 -26 32 0Q 1 23 -27 0Z" fill="#ef9b60" stroke="#376a72" stroke-width="1.5" stroke-linecap="round" stroke-linejoin="round" />
<ellipse cx="21" cy="-3" rx="3" ry="3" fill="#233f50" />
<path d="M -6 -14L -1 12M 4 -14L 9 10" fill="none" stroke="#f8e7b0" stroke-width="3" stroke-linecap="round" stroke-linejoin="round" />
</g>
<g transform="translate(465 728) scale(1)" >
<ellipse cx="0" cy="0" rx="66" ry="25" fill="#4d7870" />
<path d="M -42 0q -10 -42 -1 -61q 15 -19 22 0l 1 60Z" fill="#d59c6f" stroke="#9c745e" stroke-width="2" stroke-linecap="round" stroke-linejoin="round" />
<ellipse cx="-38" cy="-61" rx="7" ry="5" fill="#6f5e56" />
<path d="M -23 0q -10 -42 -1 -61q 15 -19 22 0l 1 60Z" fill="#d59c6f" stroke="#9c745e" stroke-width="2" stroke-linecap="round" stroke-linejoin="round" />
<ellipse cx="-19" cy="-61" rx="7" ry="5" fill="#6f5e56" />
<path d="M -4 0q -10 -42 -1 -61q 15 -19 22 0l 1 60Z" fill="#d59c6f" stroke="#9c745e" stroke-width="2" stroke-linecap="round" stroke-linejoin="round" />
<ellipse cx="0" cy="-61" rx="7" ry="5" fill="#6f5e56" />
<path d="M 15 0q -10 -42 -1 -61q 15 -19 22 0l 1 60Z" fill="#d59c6f" stroke="#9c745e" stroke-width="2" stroke-linecap="round" stroke-linejoin="round" />
<ellipse cx="19" cy="-61" rx="7" ry="5" fill="#6f5e56" />
<path d="M 34 0q -10 -42 -1 -61q 15 -19 22 0l 1 60Z" fill="#d59c6f" stroke="#9c745e" stroke-width="2" stroke-linecap="round" stroke-linejoin="round" />
<ellipse cx="38" cy="-61" rx="7" ry="5" fill="#6f5e56" />
</g>
<g transform="translate(557 721) scale(0.8)" >
<ellipse cx="0" cy="0" rx="66" ry="25" fill="#4d7870" />
<path d="M -42 0q -10 -42 -1 -61q 15 -19 22 0l 1 60Z" fill="#d59c6f" stroke="#9c745e" stroke-width="2" stroke-linecap="round" stroke-linejoin="round" />
<ellipse cx="-38" cy="-61" rx="7" ry="5" fill="#6f5e56" />
<path d="M -23 0q -10 -42 -1 -61q 15 -19 22 0l 1 60Z" fill="#d59c6f" stroke="#9c745e" stroke-width="2" stroke-linecap="round" stroke-linejoin="round" />
<ellipse cx="-19" cy="-61" rx="7" ry="5" fill="#6f5e56" />
<path d="M -4 0q -10 -42 -1 -61q 15 -19 22 0l 1 60Z" fill="#d59c6f" stroke="#9c745e" stroke-width="2" stroke-linecap="round" stroke-linejoin="round" />
<ellipse cx="0" cy="-61" rx="7" ry="5" fill="#6f5e56" />
<path d="M 15 0q -10 -42 -1 -61q 15 -19 22 0l 1 60Z" fill="#d59c6f" stroke="#9c745e" stroke-width="2" stroke-linecap="round" stroke-linejoin="round" />
<ellipse cx="19" cy="-61" rx="7" ry="5" fill="#6f5e56" />
<path d="M 34 0q -10 -42 -1 -61q 15 -19 22 0l 1 60Z" fill="#d59c6f" stroke="#9c745e" stroke-width="2" stroke-linecap="round" stroke-linejoin="round" />
<ellipse cx="38" cy="-61" rx="7" ry="5" fill="#6f5e56" />
</g>
<g transform="translate(47 741) scale(0.7)" >
<ellipse cx="0" cy="0" rx="66" ry="25" fill="#4d7870" />
<path d="M -42 0q -10 -42 -1 -61q 15 -19 22 0l 1 60Z" fill="#d59c6f" stroke="#9c745e" stroke-width="2" stroke-linecap="round" stroke-linejoin="round" />
<ellipse cx="-38" cy="-61" rx="7" ry="5" fill="#6f5e56" />
<path d="M -23 0q -10 -42 -1 -61q 15 -19 22 0l 1 60Z" fill="#d59c6f" stroke="#9c745e" stroke-width="2" stroke-linecap="round" stroke-linejoin="round" />
<ellipse cx="-19" cy="-61" rx="7" ry="5" fill="#6f5e56" />
<path d="M -4 0q -10 -42 -1 -61q 15 -19 22 0l 1 60Z" fill="#d59c6f" stroke="#9c745e" stroke-width="2" stroke-linecap="round" stroke-linejoin="round" />
<ellipse cx="0" cy="-61" rx="7" ry="5" fill="#6f5e56" />
<path d="M 15 0q -10 -42 -1 -61q 15 -19 22 0l 1 60Z" fill="#d59c6f" stroke="#9c745e" stroke-width="2" stroke-linecap="round" stroke-linejoin="round" />
<ellipse cx="19" cy="-61" rx="7" ry="5" fill="#6f5e56" />
<path d="M 34 0q -10 -42 -1 -61q 15 -19 22 0l 1 60Z" fill="#d59c6f" stroke="#9c745e" stroke-width="2" stroke-linecap="round" stroke-linejoin="round" />
<ellipse cx="38" cy="-61" rx="7" ry="5" fill="#6f5e56" />
</g>
<g transform="translate(650 737) scale(0.85)" >
<ellipse cx="0" cy="0" rx="66" ry="25" fill="#4d7870" />
<path d="M -42 0q -10 -42 -1 -61q 15 -19 22 0l 1 60Z" fill="#d59c6f" stroke="#9c745e" stroke-width="2" stroke-linecap="round" stroke-linejoin="round" />
<ellipse cx="-38" cy="-61" rx="7" ry="5" fill="#6f5e56" />
<path d="M -23 0q -10 -42 -1 -61q 15 -19 22 0l 1 60Z" fill="#d59c6f" stroke="#9c745e" stroke-width="2" stroke-linecap="round" stroke-linejoin="round" />
<ellipse cx="-19" cy="-61" rx="7" ry="5" fill="#6f5e56" />
<path d="M -4 0q -10 -42 -1 -61q 15 -19 22 0l 1 60Z" fill="#d59c6f" stroke="#9c745e" stroke-width="2" stroke-linecap="round" stroke-linejoin="round" />
<ellipse cx="0" cy="-61" rx="7" ry="5" fill="#6f5e56" />
<path d="M 15 0q -10 -42 -1 -61q 15 -19 22 0l 1 60Z" fill="#d59c6f" stroke="#9c745e" stroke-width="2" stroke-linecap="round" stroke-linejoin="round" />
<ellipse cx="19" cy="-61" rx="7" ry="5" fill="#6f5e56" />
<path d="M 34 0q -10 -42 -1 -61q 15 -19 22 0l 1 60Z" fill="#d59c6f" stroke="#9c745e" stroke-width="2" stroke-linecap="round" stroke-linejoin="round" />
<ellipse cx="38" cy="-61" rx="7" ry="5" fill="#6f5e56" />
</g>
</svg>
