<svg xmlns="http://www.w3.org/2000/svg" viewBox="0 0 1200 900">
<defs>
<linearGradient id="sky" x2="0" y2="1">
<stop stop-color="#172b54"/>
<stop offset=".55" stop-color="#836b91"/>
<stop offset="1" stop-color="#f8b68e"/>
</linearGradient>
<linearGradient id="wall" x2="1" y2="1">
<stop stop-color="#b3a4ba"/>
<stop offset="1" stop-color="#665e83"/>
</linearGradient>
<linearGradient id="dark" x2="1" y2="0">
<stop stop-color="#222e53"/>
<stop offset="1" stop-color="#53627f"/>
</linearGradient>
<linearGradient id="stair" x2="0" y2="1">
<stop stop-color="#dec6bd"/>
<stop offset="1" stop-color="#817b98"/>
</linearGradient>
</defs>
<path fill="url(#sky)" d="M 0 0H 1200V 900H 0Z"/>
<circle cx="857" cy="311" r="75" fill="#ffcd9e" opacity=".65"/>
<path d="M 0 310C 154 279 233 340 362 314S 572 270 677 301 907 366 1200 286V 355C 926 415 849 365 681 353S 286 393 0 363Z" fill="#d999a0" opacity=".19"/>
<path d="M -80 647V 458l 57 -13v 202Z" fill="#77758f" opacity=".55"/>
<path d="M -72 478v 8" stroke="#e8b5a1" stroke-width="3" opacity=".6"/>
<path d="M -60 478v 8" stroke="#e8b5a1" stroke-width="3" opacity=".6"/>
<path d="M -52 590V 473l 34 -13v 130Z" fill="#858098" opacity=".55"/>
<path d="M -44 493v 8" stroke="#e8b5a1" stroke-width="3" opacity=".6"/>
<path d="M -32 493v 8" stroke="#e8b5a1" stroke-width="3" opacity=".6"/>
<path d="M -24 558V 464l 33 -13v 107Z" fill="#77758f" opacity=".55"/>
<path d="M -16 484v 8" stroke="#e8b5a1" stroke-width="3" opacity=".6"/>
<path d="M -4 484v 8" stroke="#e8b5a1" stroke-width="3" opacity=".6"/>
<path d="M 4 513V 420l 31 -13v 106Z" fill="#858098" opacity=".55"/>
<path d="M 12 440v 8" stroke="#e8b5a1" stroke-width="3" opacity=".6"/>
<path d="M 24 440v 8" stroke="#e8b5a1" stroke-width="3" opacity=".6"/>
<path d="M 32 538V 353l 47 -13v 198Z" fill="#858098" opacity=".55"/>
<path d="M 40 373v 8" stroke="#e8b5a1" stroke-width="3" opacity=".6"/>
<path d="M 52 373v 8" stroke="#e8b5a1" stroke-width="3" opacity=".6"/>
<path d="M 60 588V 383l 22 -13v 218Z" fill="#6d6d8d" opacity=".55"/>
<path d="M 68 403v 8" stroke="#e8b5a1" stroke-width="3" opacity=".6"/>
<path d="M 80 403v 8" stroke="#e8b5a1" stroke-width="3" opacity=".6"/>
<path d="M 88 476V 358l 24 -13v 131Z" fill="#6d6d8d" opacity=".55"/>
<path d="M 96 378v 8" stroke="#e8b5a1" stroke-width="3" opacity=".6"/>
<path d="M 108 378v 8" stroke="#e8b5a1" stroke-width="3" opacity=".6"/>
<path d="M 116 503V 350l 51 -13v 166Z" fill="#77758f" opacity=".55"/>
<path d="M 124 370v 8" stroke="#e8b5a1" stroke-width="3" opacity=".6"/>
<path d="M 136 370v 8" stroke="#e8b5a1" stroke-width="3" opacity=".6"/>
<path d="M 144 522V 393l 55 -13v 142Z" fill="#858098" opacity=".55"/>
<path d="M 152 413v 8" stroke="#e8b5a1" stroke-width="3" opacity=".6"/>
<path d="M 164 413v 8" stroke="#e8b5a1" stroke-width="3" opacity=".6"/>
<path d="M 172 489V 418l 53 -13v 84Z" fill="#858098" opacity=".55"/>
<path d="M 180 438v 8" stroke="#e8b5a1" stroke-width="3" opacity=".6"/>
<path d="M 192 438v 8" stroke="#e8b5a1" stroke-width="3" opacity=".6"/>
<path d="M 200 505V 364l 51 -13v 154Z" fill="#77758f" opacity=".55"/>
<path d="M 208 384v 8" stroke="#e8b5a1" stroke-width="3" opacity=".6"/>
<path d="M 220 384v 8" stroke="#e8b5a1" stroke-width="3" opacity=".6"/>
<path d="M 228 514V 364l 38 -13v 163Z" fill="#6d6d8d" opacity=".55"/>
<path d="M 236 384v 8" stroke="#e8b5a1" stroke-width="3" opacity=".6"/>
<path d="M 248 384v 8" stroke="#e8b5a1" stroke-width="3" opacity=".6"/>
<path d="M 256 551V 474l 40 -13v 90Z" fill="#6d6d8d" opacity=".55"/>
<path d="M 264 494v 8" stroke="#e8b5a1" stroke-width="3" opacity=".6"/>
<path d="M 276 494v 8" stroke="#e8b5a1" stroke-width="3" opacity=".6"/>
<path d="M 284 467V 370l 47 -13v 110Z" fill="#77758f" opacity=".55"/>
<path d="M 292 390v 8" stroke="#e8b5a1" stroke-width="3" opacity=".6"/>
<path d="M 304 390v 8" stroke="#e8b5a1" stroke-width="3" opacity=".6"/>
<path d="M 312 515V 441l 26 -13v 87Z" fill="#858098" opacity=".55"/>
<path d="M 320 461v 8" stroke="#e8b5a1" stroke-width="3" opacity=".6"/>
<path d="M 332 461v 8" stroke="#e8b5a1" stroke-width="3" opacity=".6"/>
<path d="M 340 466V 343l 35 -13v 136Z" fill="#6d6d8d" opacity=".55"/>
<path d="M 348 363v 8" stroke="#e8b5a1" stroke-width="3" opacity=".6"/>
<path d="M 360 363v 8" stroke="#e8b5a1" stroke-width="3" opacity=".6"/>
<path d="M 368 634V 463l 46 -13v 184Z" fill="#77758f" opacity=".55"/>
<path d="M 376 483v 8" stroke="#e8b5a1" stroke-width="3" opacity=".6"/>
<path d="M 388 483v 8" stroke="#e8b5a1" stroke-width="3" opacity=".6"/>
<path d="M 396 481V 361l 58 -13v 133Z" fill="#858098" opacity=".55"/>
<path d="M 404 381v 8" stroke="#e8b5a1" stroke-width="3" opacity=".6"/>
<path d="M 416 381v 8" stroke="#e8b5a1" stroke-width="3" opacity=".6"/>
<path d="M 424 504V 412l 43 -13v 105Z" fill="#77758f" opacity=".55"/>
<path d="M 432 432v 8" stroke="#e8b5a1" stroke-width="3" opacity=".6"/>
<path d="M 444 432v 8" stroke="#e8b5a1" stroke-width="3" opacity=".6"/>
<path d="M 452 602V 428l 22 -13v 187Z" fill="#6d6d8d" opacity=".55"/>
<path d="M 460 448v 8" stroke="#e8b5a1" stroke-width="3" opacity=".6"/>
<path d="M 472 448v 8" stroke="#e8b5a1" stroke-width="3" opacity=".6"/>
<path d="M 480 472V 377l 37 -13v 108Z" fill="#6d6d8d" opacity=".55"/>
<path d="M 488 397v 8" stroke="#e8b5a1" stroke-width="3" opacity=".6"/>
<path d="M 500 397v 8" stroke="#e8b5a1" stroke-width="3" opacity=".6"/>
<path d="M 508 552V 358l 51 -13v 207Z" fill="#6d6d8d" opacity=".55"/>
<path d="M 516 378v 8" stroke="#e8b5a1" stroke-width="3" opacity=".6"/>
<path d="M 528 378v 8" stroke="#e8b5a1" stroke-width="3" opacity=".6"/>
<path d="M 536 591V 391l 50 -13v 213Z" fill="#6d6d8d" opacity=".55"/>
<path d="M 544 411v 8" stroke="#e8b5a1" stroke-width="3" opacity=".6"/>
<path d="M 556 411v 8" stroke="#e8b5a1" stroke-width="3" opacity=".6"/>
<path d="M 564 544V 376l 48 -13v 181Z" fill="#6d6d8d" opacity=".55"/>
<path d="M 572 396v 8" stroke="#e8b5a1" stroke-width="3" opacity=".6"/>
<path d="M 584 396v 8" stroke="#e8b5a1" stroke-width="3" opacity=".6"/>
<path d="M 592 568V 444l 48 -13v 137Z" fill="#6d6d8d" opacity=".55"/>
<path d="M 600 464v 8" stroke="#e8b5a1" stroke-width="3" opacity=".6"/>
<path d="M 612 464v 8" stroke="#e8b5a1" stroke-width="3" opacity=".6"/>
<path d="M 620 487V 412l 41 -13v 88Z" fill="#6d6d8d" opacity=".55"/>
<path d="M 628 432v 8" stroke="#e8b5a1" stroke-width="3" opacity=".6"/>
<path d="M 640 432v 8" stroke="#e8b5a1" stroke-width="3" opacity=".6"/>
<path d="M 648 607V 390l 47 -13v 230Z" fill="#6d6d8d" opacity=".55"/>
<path d="M 656 410v 8" stroke="#e8b5a1" stroke-width="3" opacity=".6"/>
<path d="M 668 410v 8" stroke="#e8b5a1" stroke-width="3" opacity=".6"/>
<path d="M 676 477V 353l 31 -13v 137Z" fill="#77758f" opacity=".55"/>
<path d="M 684 373v 8" stroke="#e8b5a1" stroke-width="3" opacity=".6"/>
<path d="M 696 373v 8" stroke="#e8b5a1" stroke-width="3" opacity=".6"/>
<path d="M 704 563V 409l 22 -13v 167Z" fill="#77758f" opacity=".55"/>
<path d="M 712 429v 8" stroke="#e8b5a1" stroke-width="3" opacity=".6"/>
<path d="M 724 429v 8" stroke="#e8b5a1" stroke-width="3" opacity=".6"/>
<path d="M 732 530V 441l 26 -13v 102Z" fill="#6d6d8d" opacity=".55"/>
<path d="M 740 461v 8" stroke="#e8b5a1" stroke-width="3" opacity=".6"/>
<path d="M 752 461v 8" stroke="#e8b5a1" stroke-width="3" opacity=".6"/>
<path d="M 760 469V 396l 37 -13v 86Z" fill="#858098" opacity=".55"/>
<path d="M 768 416v 8" stroke="#e8b5a1" stroke-width="3" opacity=".6"/>
<path d="M 780 416v 8" stroke="#e8b5a1" stroke-width="3" opacity=".6"/>
<path d="M 788 623V 437l 45 -13v 199Z" fill="#6d6d8d" opacity=".55"/>
<path d="M 796 457v 8" stroke="#e8b5a1" stroke-width="3" opacity=".6"/>
<path d="M 808 457v 8" stroke="#e8b5a1" stroke-width="3" opacity=".6"/>
<path d="M 816 570V 466l 58 -13v 117Z" fill="#77758f" opacity=".55"/>
<path d="M 824 486v 8" stroke="#e8b5a1" stroke-width="3" opacity=".6"/>
<path d="M 836 486v 8" stroke="#e8b5a1" stroke-width="3" opacity=".6"/>
<path d="M 844 538V 389l 31 -13v 162Z" fill="#6d6d8d" opacity=".55"/>
<path d="M 852 409v 8" stroke="#e8b5a1" stroke-width="3" opacity=".6"/>
<path d="M 864 409v 8" stroke="#e8b5a1" stroke-width="3" opacity=".6"/>
<path d="M 872 516V 406l 34 -13v 123Z" fill="#858098" opacity=".55"/>
<path d="M 880 426v 8" stroke="#e8b5a1" stroke-width="3" opacity=".6"/>
<path d="M 892 426v 8" stroke="#e8b5a1" stroke-width="3" opacity=".6"/>
<path d="M 900 586V 393l 46 -13v 206Z" fill="#858098" opacity=".55"/>
<path d="M 908 413v 8" stroke="#e8b5a1" stroke-width="3" opacity=".6"/>
<path d="M 920 413v 8" stroke="#e8b5a1" stroke-width="3" opacity=".6"/>
<path d="M 928 445V 363l 48 -13v 95Z" fill="#6d6d8d" opacity=".55"/>
<path d="M 936 383v 8" stroke="#e8b5a1" stroke-width="3" opacity=".6"/>
<path d="M 948 383v 8" stroke="#e8b5a1" stroke-width="3" opacity=".6"/>
<path d="M 956 571V 370l 24 -13v 214Z" fill="#77758f" opacity=".55"/>
<path d="M 964 390v 8" stroke="#e8b5a1" stroke-width="3" opacity=".6"/>
<path d="M 976 390v 8" stroke="#e8b5a1" stroke-width="3" opacity=".6"/>
<path d="M 984 539V 404l 47 -13v 148Z" fill="#77758f" opacity=".55"/>
<path d="M 992 424v 8" stroke="#e8b5a1" stroke-width="3" opacity=".6"/>
<path d="M 1004 424v 8" stroke="#e8b5a1" stroke-width="3" opacity=".6"/>
<path d="M 1012 671V 468l 40 -13v 216Z" fill="#6d6d8d" opacity=".55"/>
<path d="M 1020 488v 8" stroke="#e8b5a1" stroke-width="3" opacity=".6"/>
<path d="M 1032 488v 8" stroke="#e8b5a1" stroke-width="3" opacity=".6"/>
<path d="M 1040 488V 360l 30 -13v 141Z" fill="#77758f" opacity=".55"/>
<path d="M 1048 380v 8" stroke="#e8b5a1" stroke-width="3" opacity=".6"/>
<path d="M 1060 380v 8" stroke="#e8b5a1" stroke-width="3" opacity=".6"/>
<path d="M 1068 485V 361l 39 -13v 137Z" fill="#6d6d8d" opacity=".55"/>
<path d="M 1076 381v 8" stroke="#e8b5a1" stroke-width="3" opacity=".6"/>
<path d="M 1088 381v 8" stroke="#e8b5a1" stroke-width="3" opacity=".6"/>
<path d="M 1096 485V 347l 26 -13v 151Z" fill="#77758f" opacity=".55"/>
<path d="M 1104 367v 8" stroke="#e8b5a1" stroke-width="3" opacity=".6"/>
<path d="M 1116 367v 8" stroke="#e8b5a1" stroke-width="3" opacity=".6"/>
<path d="M 1124 542V 457l 37 -13v 98Z" fill="#6d6d8d" opacity=".55"/>
<path d="M 1132 477v 8" stroke="#e8b5a1" stroke-width="3" opacity=".6"/>
<path d="M 1144 477v 8" stroke="#e8b5a1" stroke-width="3" opacity=".6"/>
<path d="M 1152 552V 388l 40 -13v 177Z" fill="#858098" opacity=".55"/>
<path d="M 1160 408v 8" stroke="#e8b5a1" stroke-width="3" opacity=".6"/>
<path d="M 1172 408v 8" stroke="#e8b5a1" stroke-width="3" opacity=".6"/>
<path d="M 1180 538V 376l 27 -13v 175Z" fill="#6d6d8d" opacity=".55"/>
<path d="M 1188 396v 8" stroke="#e8b5a1" stroke-width="3" opacity=".6"/>
<path d="M 1200 396v 8" stroke="#e8b5a1" stroke-width="3" opacity=".6"/>
<path d="M 1208 661V 458l 43 -13v 216Z" fill="#858098" opacity=".55"/>
<path d="M 1216 478v 8" stroke="#e8b5a1" stroke-width="3" opacity=".6"/>
<path d="M 1228 478v 8" stroke="#e8b5a1" stroke-width="3" opacity=".6"/>
<path d="M 1236 452V 378l 24 -13v 87Z" fill="#77758f" opacity=".55"/>
<path d="M 1244 398v 8" stroke="#e8b5a1" stroke-width="3" opacity=".6"/>
<path d="M 1256 398v 8" stroke="#e8b5a1" stroke-width="3" opacity=".6"/>
<path d="M 1264 512V 434l 41 -13v 91Z" fill="#6d6d8d" opacity=".55"/>
<path d="M 1272 454v 8" stroke="#e8b5a1" stroke-width="3" opacity=".6"/>
<path d="M 1284 454v 8" stroke="#e8b5a1" stroke-width="3" opacity=".6"/>
<path d="M 1292 449V 362l 52 -13v 100Z" fill="#858098" opacity=".55"/>
<path d="M 1300 382v 8" stroke="#e8b5a1" stroke-width="3" opacity=".6"/>
<path d="M 1312 382v 8" stroke="#e8b5a1" stroke-width="3" opacity=".6"/>
<path d="M 0 565L 485 424 1200 519V 900H 0Z" fill="#494f72"/>
<path d="M 424 900L 679 477 911 479 771 900Z" fill="#253551"/>
<path d="M 48 730l 178 -40.940000000000005v -388l -178 40.940000000000005Z" fill="#9c91ac"/>
<path d="M 226 689.06l 70 -38.5v -388l -70 38.5Z" fill="#575f81"/>
<path d="M 48 342l 70 -38.5 178 -40.940000000000005 -70 38.5Z" fill="#ccbabf"/>
<path d="M 60 361.24l 10 -2v 15l -10 2Z" fill="#44516e"/>
<path d="M 58 377.24l 14 -3" stroke="#c3b0b4" stroke-width="2"/>
<path d="M 89 354.57l 10 -2v 15l -10 2Z" fill="#44516e"/>
<path d="M 87 370.57l 14 -3" stroke="#c3b0b4" stroke-width="2"/>
<path d="M 118 347.9l 10 -2v 15l -10 2Z" fill="#354260"/>
<path d="M 116 363.9l 14 -3" stroke="#c3b0b4" stroke-width="2"/>
<path d="M 147 341.23l 10 -2v 15l -10 2Z" fill="#354260"/>
<path d="M 145 357.23l 14 -3" stroke="#c3b0b4" stroke-width="2"/>
<path d="M 176 334.56l 10 -2v 15l -10 2Z" fill="#354260"/>
<path d="M 174 350.56l 14 -3" stroke="#c3b0b4" stroke-width="2"/>
<path d="M 60 393.24l 10 -2v 15l -10 2Z" fill="#44516e"/>
<path d="M 58 409.24l 14 -3" stroke="#c3b0b4" stroke-width="2"/>
<path d="M 89 386.57l 10 -2v 15l -10 2Z" fill="#f4c9a3"/>
<path d="M 87 402.57l 14 -3" stroke="#c3b0b4" stroke-width="2"/>
<path d="M 118 379.9l 10 -2v 15l -10 2Z" fill="#44516e"/>
<path d="M 116 395.9l 14 -3" stroke="#c3b0b4" stroke-width="2"/>
<path d="M 147 373.23l 10 -2v 15l -10 2Z" fill="#f4c9a3"/>
<path d="M 145 389.23l 14 -3" stroke="#c3b0b4" stroke-width="2"/>
<path d="M 176 366.56l 10 -2v 15l -10 2Z" fill="#354260"/>
<path d="M 174 382.56l 14 -3" stroke="#c3b0b4" stroke-width="2"/>
<path d="M 60 425.24l 10 -2v 15l -10 2Z" fill="#f4c9a3"/>
<path d="M 58 441.24l 14 -3" stroke="#c3b0b4" stroke-width="2"/>
<path d="M 89 418.57l 10 -2v 15l -10 2Z" fill="#f4c9a3"/>
<path d="M 87 434.57l 14 -3" stroke="#c3b0b4" stroke-width="2"/>
<path d="M 118 411.9l 10 -2v 15l -10 2Z" fill="#f4c9a3"/>
<path d="M 116 427.9l 14 -3" stroke="#c3b0b4" stroke-width="2"/>
<path d="M 147 405.23l 10 -2v 15l -10 2Z" fill="#354260"/>
<path d="M 145 421.23l 14 -3" stroke="#c3b0b4" stroke-width="2"/>
<path d="M 176 398.56l 10 -2v 15l -10 2Z" fill="#44516e"/>
<path d="M 174 414.56l 14 -3" stroke="#c3b0b4" stroke-width="2"/>
<path d="M 60 457.24l 10 -2v 15l -10 2Z" fill="#44516e"/>
<path d="M 58 473.24l 14 -3" stroke="#c3b0b4" stroke-width="2"/>
<path d="M 89 450.57l 10 -2v 15l -10 2Z" fill="#354260"/>
<path d="M 87 466.57l 14 -3" stroke="#c3b0b4" stroke-width="2"/>
<path d="M 118 443.9l 10 -2v 15l -10 2Z" fill="#f4c9a3"/>
<path d="M 116 459.9l 14 -3" stroke="#c3b0b4" stroke-width="2"/>
<path d="M 147 437.23l 10 -2v 15l -10 2Z" fill="#44516e"/>
<path d="M 145 453.23l 14 -3" stroke="#c3b0b4" stroke-width="2"/>
<path d="M 176 430.56l 10 -2v 15l -10 2Z" fill="#354260"/>
<path d="M 174 446.56l 14 -3" stroke="#c3b0b4" stroke-width="2"/>
<path d="M 60 489.24l 10 -2v 15l -10 2Z" fill="#44516e"/>
<path d="M 58 505.24l 14 -3" stroke="#c3b0b4" stroke-width="2"/>
<path d="M 89 482.57l 10 -2v 15l -10 2Z" fill="#354260"/>
<path d="M 87 498.57l 14 -3" stroke="#c3b0b4" stroke-width="2"/>
<path d="M 118 475.9l 10 -2v 15l -10 2Z" fill="#44516e"/>
<path d="M 116 491.9l 14 -3" stroke="#c3b0b4" stroke-width="2"/>
<path d="M 147 469.23l 10 -2v 15l -10 2Z" fill="#f4c9a3"/>
<path d="M 145 485.23l 14 -3" stroke="#c3b0b4" stroke-width="2"/>
<path d="M 176 462.56l 10 -2v 15l -10 2Z" fill="#354260"/>
<path d="M 174 478.56l 14 -3" stroke="#c3b0b4" stroke-width="2"/>
<path d="M 60 521.24l 10 -2v 15l -10 2Z" fill="#f4c9a3"/>
<path d="M 58 537.24l 14 -3" stroke="#c3b0b4" stroke-width="2"/>
<path d="M 89 514.57l 10 -2v 15l -10 2Z" fill="#f4c9a3"/>
<path d="M 87 530.57l 14 -3" stroke="#c3b0b4" stroke-width="2"/>
<path d="M 118 507.9l 10 -2v 15l -10 2Z" fill="#44516e"/>
<path d="M 116 523.9l 14 -3" stroke="#c3b0b4" stroke-width="2"/>
<path d="M 147 501.23l 10 -2v 15l -10 2Z" fill="#44516e"/>
<path d="M 145 517.23l 14 -3" stroke="#c3b0b4" stroke-width="2"/>
<path d="M 176 494.56l 10 -2v 15l -10 2Z" fill="#f4c9a3"/>
<path d="M 174 510.56l 14 -3" stroke="#c3b0b4" stroke-width="2"/>
<path d="M 60 553.24l 10 -2v 15l -10 2Z" fill="#354260"/>
<path d="M 58 569.24l 14 -3" stroke="#c3b0b4" stroke-width="2"/>
<path d="M 89 546.57l 10 -2v 15l -10 2Z" fill="#f4c9a3"/>
<path d="M 87 562.57l 14 -3" stroke="#c3b0b4" stroke-width="2"/>
<path d="M 118 539.9l 10 -2v 15l -10 2Z" fill="#354260"/>
<path d="M 116 555.9l 14 -3" stroke="#c3b0b4" stroke-width="2"/>
<path d="M 147 533.23l 10 -2v 15l -10 2Z" fill="#354260"/>
<path d="M 145 549.23l 14 -3" stroke="#c3b0b4" stroke-width="2"/>
<path d="M 176 526.56l 10 -2v 15l -10 2Z" fill="#354260"/>
<path d="M 174 542.56l 14 -3" stroke="#c3b0b4" stroke-width="2"/>
<path d="M 60 585.24l 10 -2v 15l -10 2Z" fill="#f4c9a3"/>
<path d="M 58 601.24l 14 -3" stroke="#c3b0b4" stroke-width="2"/>
<path d="M 89 578.57l 10 -2v 15l -10 2Z" fill="#354260"/>
<path d="M 87 594.57l 14 -3" stroke="#c3b0b4" stroke-width="2"/>
<path d="M 118 571.9l 10 -2v 15l -10 2Z" fill="#44516e"/>
<path d="M 116 587.9l 14 -3" stroke="#c3b0b4" stroke-width="2"/>
<path d="M 147 565.23l 10 -2v 15l -10 2Z" fill="#44516e"/>
<path d="M 145 581.23l 14 -3" stroke="#c3b0b4" stroke-width="2"/>
<path d="M 176 558.56l 10 -2v 15l -10 2Z" fill="#f4c9a3"/>
<path d="M 174 574.56l 14 -3" stroke="#c3b0b4" stroke-width="2"/>
<path d="M 60 617.24l 10 -2v 15l -10 2Z" fill="#44516e"/>
<path d="M 58 633.24l 14 -3" stroke="#c3b0b4" stroke-width="2"/>
<path d="M 89 610.57l 10 -2v 15l -10 2Z" fill="#44516e"/>
<path d="M 87 626.57l 14 -3" stroke="#c3b0b4" stroke-width="2"/>
<path d="M 118 603.9l 10 -2v 15l -10 2Z" fill="#f4c9a3"/>
<path d="M 116 619.9l 14 -3" stroke="#c3b0b4" stroke-width="2"/>
<path d="M 147 597.23l 10 -2v 15l -10 2Z" fill="#f4c9a3"/>
<path d="M 145 613.23l 14 -3" stroke="#c3b0b4" stroke-width="2"/>
<path d="M 176 590.56l 10 -2v 15l -10 2Z" fill="#f4c9a3"/>
<path d="M 174 606.56l 14 -3" stroke="#c3b0b4" stroke-width="2"/>
<path d="M 60 649.24l 10 -2v 15l -10 2Z" fill="#44516e"/>
<path d="M 58 665.24l 14 -3" stroke="#c3b0b4" stroke-width="2"/>
<path d="M 89 642.57l 10 -2v 15l -10 2Z" fill="#44516e"/>
<path d="M 87 658.57l 14 -3" stroke="#c3b0b4" stroke-width="2"/>
<path d="M 118 635.9l 10 -2v 15l -10 2Z" fill="#44516e"/>
<path d="M 116 651.9l 14 -3" stroke="#c3b0b4" stroke-width="2"/>
<path d="M 147 629.23l 10 -2v 15l -10 2Z" fill="#f4c9a3"/>
<path d="M 145 645.23l 14 -3" stroke="#c3b0b4" stroke-width="2"/>
<path d="M 176 622.56l 10 -2v 15l -10 2Z" fill="#354260"/>
<path d="M 174 638.56l 14 -3" stroke="#c3b0b4" stroke-width="2"/>
<path d="M 60 681.24l 10 -2v 15l -10 2Z" fill="#f4c9a3"/>
<path d="M 58 697.24l 14 -3" stroke="#c3b0b4" stroke-width="2"/>
<path d="M 89 674.57l 10 -2v 15l -10 2Z" fill="#f4c9a3"/>
<path d="M 87 690.57l 14 -3" stroke="#c3b0b4" stroke-width="2"/>
<path d="M 118 667.9l 10 -2v 15l -10 2Z" fill="#354260"/>
<path d="M 116 683.9l 14 -3" stroke="#c3b0b4" stroke-width="2"/>
<path d="M 147 661.23l 10 -2v 15l -10 2Z" fill="#44516e"/>
<path d="M 145 677.23l 14 -3" stroke="#c3b0b4" stroke-width="2"/>
<path d="M 176 654.56l 10 -2v 15l -10 2Z" fill="#f4c9a3"/>
<path d="M 174 670.56l 14 -3" stroke="#c3b0b4" stroke-width="2"/>
<path d="M 48 406l 178 -40.940000000000005 70 -38.5" fill="none" stroke="#c3aeb5" stroke-width="3" opacity=".5"/>
<path d="M 48 470l 178 -40.940000000000005 70 -38.5" fill="none" stroke="#c3aeb5" stroke-width="3" opacity=".5"/>
<path d="M 48 534l 178 -40.940000000000005 70 -38.5" fill="none" stroke="#c3aeb5" stroke-width="3" opacity=".5"/>
<path d="M 48 598l 178 -40.940000000000005 70 -38.5" fill="none" stroke="#c3aeb5" stroke-width="3" opacity=".5"/>
<path d="M 48 662l 178 -40.940000000000005 70 -38.5" fill="none" stroke="#c3aeb5" stroke-width="3" opacity=".5"/>
<path d="M 255 563l 105 -24.150000000000002v -255l -105 24.150000000000002Z" fill="#b6a2b3"/>
<path d="M 360 538.85l 60 -33.0v -255l -60 33.0Z" fill="#575f81"/>
<path d="M 255 308l 60 -33.0 105 -24.150000000000002 -60 33.0Z" fill="#ccbabf"/>
<path d="M 267 327.24l 10 -2v 15l -10 2Z" fill="#354260"/>
<path d="M 265 343.24l 14 -3" stroke="#c3b0b4" stroke-width="2"/>
<path d="M 296 320.57l 10 -2v 15l -10 2Z" fill="#44516e"/>
<path d="M 294 336.57l 14 -3" stroke="#c3b0b4" stroke-width="2"/>
<path d="M 325 313.9l 10 -2v 15l -10 2Z" fill="#354260"/>
<path d="M 323 329.9l 14 -3" stroke="#c3b0b4" stroke-width="2"/>
<path d="M 267 359.24l 10 -2v 15l -10 2Z" fill="#354260"/>
<path d="M 265 375.24l 14 -3" stroke="#c3b0b4" stroke-width="2"/>
<path d="M 296 352.57l 10 -2v 15l -10 2Z" fill="#f4c9a3"/>
<path d="M 294 368.57l 14 -3" stroke="#c3b0b4" stroke-width="2"/>
<path d="M 325 345.9l 10 -2v 15l -10 2Z" fill="#354260"/>
<path d="M 323 361.9l 14 -3" stroke="#c3b0b4" stroke-width="2"/>
<path d="M 267 391.24l 10 -2v 15l -10 2Z" fill="#44516e"/>
<path d="M 265 407.24l 14 -3" stroke="#c3b0b4" stroke-width="2"/>
<path d="M 296 384.57l 10 -2v 15l -10 2Z" fill="#f4c9a3"/>
<path d="M 294 400.57l 14 -3" stroke="#c3b0b4" stroke-width="2"/>
<path d="M 325 377.9l 10 -2v 15l -10 2Z" fill="#f4c9a3"/>
<path d="M 323 393.9l 14 -3" stroke="#c3b0b4" stroke-width="2"/>
<path d="M 267 423.24l 10 -2v 15l -10 2Z" fill="#44516e"/>
<path d="M 265 439.24l 14 -3" stroke="#c3b0b4" stroke-width="2"/>
<path d="M 296 416.57l 10 -2v 15l -10 2Z" fill="#44516e"/>
<path d="M 294 432.57l 14 -3" stroke="#c3b0b4" stroke-width="2"/>
<path d="M 325 409.9l 10 -2v 15l -10 2Z" fill="#354260"/>
<path d="M 323 425.9l 14 -3" stroke="#c3b0b4" stroke-width="2"/>
<path d="M 267 455.24l 10 -2v 15l -10 2Z" fill="#44516e"/>
<path d="M 265 471.24l 14 -3" stroke="#c3b0b4" stroke-width="2"/>
<path d="M 296 448.57l 10 -2v 15l -10 2Z" fill="#44516e"/>
<path d="M 294 464.57l 14 -3" stroke="#c3b0b4" stroke-width="2"/>
<path d="M 325 441.9l 10 -2v 15l -10 2Z" fill="#354260"/>
<path d="M 323 457.9l 14 -3" stroke="#c3b0b4" stroke-width="2"/>
<path d="M 267 487.24l 10 -2v 15l -10 2Z" fill="#f4c9a3"/>
<path d="M 265 503.24l 14 -3" stroke="#c3b0b4" stroke-width="2"/>
<path d="M 296 480.57l 10 -2v 15l -10 2Z" fill="#f4c9a3"/>
<path d="M 294 496.57l 14 -3" stroke="#c3b0b4" stroke-width="2"/>
<path d="M 325 473.9l 10 -2v 15l -10 2Z" fill="#354260"/>
<path d="M 323 489.9l 14 -3" stroke="#c3b0b4" stroke-width="2"/>
<path d="M 267 519.24l 10 -2v 15l -10 2Z" fill="#f4c9a3"/>
<path d="M 265 535.24l 14 -3" stroke="#c3b0b4" stroke-width="2"/>
<path d="M 296 512.57l 10 -2v 15l -10 2Z" fill="#354260"/>
<path d="M 294 528.57l 14 -3" stroke="#c3b0b4" stroke-width="2"/>
<path d="M 325 505.9l 10 -2v 15l -10 2Z" fill="#44516e"/>
<path d="M 323 521.9l 14 -3" stroke="#c3b0b4" stroke-width="2"/>
<path d="M 255 372l 105 -24.150000000000002 60 -33.0" fill="none" stroke="#c3aeb5" stroke-width="3" opacity=".5"/>
<path d="M 255 436l 105 -24.150000000000002 60 -33.0" fill="none" stroke="#c3aeb5" stroke-width="3" opacity=".5"/>
<path d="M 374 500l 125 -28.75v -172l -125 28.75Z" fill="#9c91ac"/>
<path d="M 499 471.25l 55 -30.250000000000004v -172l -55 30.250000000000004Z" fill="#575f81"/>
<path d="M 374 328l 55 -30.250000000000004 125 -28.75 -55 30.250000000000004Z" fill="#ccbabf"/>
<path d="M 386 347.24l 10 -2v 15l -10 2Z" fill="#f4c9a3"/>
<path d="M 384 363.24l 14 -3" stroke="#c3b0b4" stroke-width="2"/>
<path d="M 415 340.57l 10 -2v 15l -10 2Z" fill="#44516e"/>
<path d="M 413 356.57l 14 -3" stroke="#c3b0b4" stroke-width="2"/>
<path d="M 444 333.9l 10 -2v 15l -10 2Z" fill="#44516e"/>
<path d="M 442 349.9l 14 -3" stroke="#c3b0b4" stroke-width="2"/>
<path d="M 473 327.23l 10 -2v 15l -10 2Z" fill="#354260"/>
<path d="M 471 343.23l 14 -3" stroke="#c3b0b4" stroke-width="2"/>
<path d="M 386 379.24l 10 -2v 15l -10 2Z" fill="#44516e"/>
<path d="M 384 395.24l 14 -3" stroke="#c3b0b4" stroke-width="2"/>
<path d="M 415 372.57l 10 -2v 15l -10 2Z" fill="#44516e"/>
<path d="M 413 388.57l 14 -3" stroke="#c3b0b4" stroke-width="2"/>
<path d="M 444 365.9l 10 -2v 15l -10 2Z" fill="#f4c9a3"/>
<path d="M 442 381.9l 14 -3" stroke="#c3b0b4" stroke-width="2"/>
<path d="M 473 359.23l 10 -2v 15l -10 2Z" fill="#44516e"/>
<path d="M 471 375.23l 14 -3" stroke="#c3b0b4" stroke-width="2"/>
<path d="M 386 411.24l 10 -2v 15l -10 2Z" fill="#354260"/>
<path d="M 384 427.24l 14 -3" stroke="#c3b0b4" stroke-width="2"/>
<path d="M 415 404.57l 10 -2v 15l -10 2Z" fill="#f4c9a3"/>
<path d="M 413 420.57l 14 -3" stroke="#c3b0b4" stroke-width="2"/>
<path d="M 444 397.9l 10 -2v 15l -10 2Z" fill="#44516e"/>
<path d="M 442 413.9l 14 -3" stroke="#c3b0b4" stroke-width="2"/>
<path d="M 473 391.23l 10 -2v 15l -10 2Z" fill="#354260"/>
<path d="M 471 407.23l 14 -3" stroke="#c3b0b4" stroke-width="2"/>
<path d="M 386 443.24l 10 -2v 15l -10 2Z" fill="#354260"/>
<path d="M 384 459.24l 14 -3" stroke="#c3b0b4" stroke-width="2"/>
<path d="M 415 436.57l 10 -2v 15l -10 2Z" fill="#44516e"/>
<path d="M 413 452.57l 14 -3" stroke="#c3b0b4" stroke-width="2"/>
<path d="M 444 429.9l 10 -2v 15l -10 2Z" fill="#354260"/>
<path d="M 442 445.9l 14 -3" stroke="#c3b0b4" stroke-width="2"/>
<path d="M 473 423.23l 10 -2v 15l -10 2Z" fill="#f4c9a3"/>
<path d="M 471 439.23l 14 -3" stroke="#c3b0b4" stroke-width="2"/>
<path d="M 374 392l 125 -28.75 55 -30.250000000000004" fill="none" stroke="#c3aeb5" stroke-width="3" opacity=".5"/>
<path d="M 798 695l 164 -37.72v -304l -164 37.72Z" fill="#9a8aa5"/>
<path d="M 962 657.28l 97 -53.35v -304l -97 53.35Z" fill="#485777"/>
<path d="M 798 391l 97 -53.35 164 -37.72 -97 53.35Z" fill="#ccbabf"/>
<path d="M 810 410.24l 10 -2v 15l -10 2Z" fill="#44516e"/>
<path d="M 808 426.24l 14 -3" stroke="#c3b0b4" stroke-width="2"/>
<path d="M 839 403.57l 10 -2v 15l -10 2Z" fill="#354260"/>
<path d="M 837 419.57l 14 -3" stroke="#c3b0b4" stroke-width="2"/>
<path d="M 868 396.9l 10 -2v 15l -10 2Z" fill="#354260"/>
<path d="M 866 412.9l 14 -3" stroke="#c3b0b4" stroke-width="2"/>
<path d="M 897 390.23l 10 -2v 15l -10 2Z" fill="#354260"/>
<path d="M 895 406.23l 14 -3" stroke="#c3b0b4" stroke-width="2"/>
<path d="M 926 383.56l 10 -2v 15l -10 2Z" fill="#44516e"/>
<path d="M 924 399.56l 14 -3" stroke="#c3b0b4" stroke-width="2"/>
<path d="M 810 442.24l 10 -2v 15l -10 2Z" fill="#44516e"/>
<path d="M 808 458.24l 14 -3" stroke="#c3b0b4" stroke-width="2"/>
<path d="M 839 435.57l 10 -2v 15l -10 2Z" fill="#354260"/>
<path d="M 837 451.57l 14 -3" stroke="#c3b0b4" stroke-width="2"/>
<path d="M 868 428.9l 10 -2v 15l -10 2Z" fill="#f4c9a3"/>
<path d="M 866 444.9l 14 -3" stroke="#c3b0b4" stroke-width="2"/>
<path d="M 897 422.23l 10 -2v 15l -10 2Z" fill="#354260"/>
<path d="M 895 438.23l 14 -3" stroke="#c3b0b4" stroke-width="2"/>
<path d="M 926 415.56l 10 -2v 15l -10 2Z" fill="#44516e"/>
<path d="M 924 431.56l 14 -3" stroke="#c3b0b4" stroke-width="2"/>
<path d="M 810 474.24l 10 -2v 15l -10 2Z" fill="#354260"/>
<path d="M 808 490.24l 14 -3" stroke="#c3b0b4" stroke-width="2"/>
<path d="M 839 467.57l 10 -2v 15l -10 2Z" fill="#354260"/>
<path d="M 837 483.57l 14 -3" stroke="#c3b0b4" stroke-width="2"/>
<path d="M 868 460.9l 10 -2v 15l -10 2Z" fill="#44516e"/>
<path d="M 866 476.9l 14 -3" stroke="#c3b0b4" stroke-width="2"/>
<path d="M 897 454.23l 10 -2v 15l -10 2Z" fill="#44516e"/>
<path d="M 895 470.23l 14 -3" stroke="#c3b0b4" stroke-width="2"/>
<path d="M 926 447.56l 10 -2v 15l -10 2Z" fill="#44516e"/>
<path d="M 924 463.56l 14 -3" stroke="#c3b0b4" stroke-width="2"/>
<path d="M 810 506.24l 10 -2v 15l -10 2Z" fill="#354260"/>
<path d="M 808 522.24l 14 -3" stroke="#c3b0b4" stroke-width="2"/>
<path d="M 839 499.57l 10 -2v 15l -10 2Z" fill="#44516e"/>
<path d="M 837 515.5699999999999l 14 -3" stroke="#c3b0b4" stroke-width="2"/>
<path d="M 868 492.9l 10 -2v 15l -10 2Z" fill="#44516e"/>
<path d="M 866 508.9l 14 -3" stroke="#c3b0b4" stroke-width="2"/>
<path d="M 897 486.23l 10 -2v 15l -10 2Z" fill="#f4c9a3"/>
<path d="M 895 502.23l 14 -3" stroke="#c3b0b4" stroke-width="2"/>
<path d="M 926 479.56l 10 -2v 15l -10 2Z" fill="#f4c9a3"/>
<path d="M 924 495.56l 14 -3" stroke="#c3b0b4" stroke-width="2"/>
<path d="M 810 538.24l 10 -2v 15l -10 2Z" fill="#44516e"/>
<path d="M 808 554.24l 14 -3" stroke="#c3b0b4" stroke-width="2"/>
<path d="M 839 531.57l 10 -2v 15l -10 2Z" fill="#f4c9a3"/>
<path d="M 837 547.57l 14 -3" stroke="#c3b0b4" stroke-width="2"/>
<path d="M 868 524.9l 10 -2v 15l -10 2Z" fill="#44516e"/>
<path d="M 866 540.9l 14 -3" stroke="#c3b0b4" stroke-width="2"/>
<path d="M 897 518.23l 10 -2v 15l -10 2Z" fill="#f4c9a3"/>
<path d="M 895 534.23l 14 -3" stroke="#c3b0b4" stroke-width="2"/>
<path d="M 926 511.56l 10 -2v 15l -10 2Z" fill="#f4c9a3"/>
<path d="M 924 527.56l 14 -3" stroke="#c3b0b4" stroke-width="2"/>
<path d="M 810 570.24l 10 -2v 15l -10 2Z" fill="#44516e"/>
<path d="M 808 586.24l 14 -3" stroke="#c3b0b4" stroke-width="2"/>
<path d="M 839 563.57l 10 -2v 15l -10 2Z" fill="#44516e"/>
<path d="M 837 579.57l 14 -3" stroke="#c3b0b4" stroke-width="2"/>
<path d="M 868 556.9l 10 -2v 15l -10 2Z" fill="#354260"/>
<path d="M 866 572.9l 14 -3" stroke="#c3b0b4" stroke-width="2"/>
<path d="M 897 550.23l 10 -2v 15l -10 2Z" fill="#354260"/>
<path d="M 895 566.23l 14 -3" stroke="#c3b0b4" stroke-width="2"/>
<path d="M 926 543.56l 10 -2v 15l -10 2Z" fill="#44516e"/>
<path d="M 924 559.56l 14 -3" stroke="#c3b0b4" stroke-width="2"/>
<path d="M 810 602.24l 10 -2v 15l -10 2Z" fill="#f4c9a3"/>
<path d="M 808 618.24l 14 -3" stroke="#c3b0b4" stroke-width="2"/>
<path d="M 839 595.57l 10 -2v 15l -10 2Z" fill="#354260"/>
<path d="M 837 611.57l 14 -3" stroke="#c3b0b4" stroke-width="2"/>
<path d="M 868 588.9l 10 -2v 15l -10 2Z" fill="#f4c9a3"/>
<path d="M 866 604.9l 14 -3" stroke="#c3b0b4" stroke-width="2"/>
<path d="M 897 582.23l 10 -2v 15l -10 2Z" fill="#f4c9a3"/>
<path d="M 895 598.23l 14 -3" stroke="#c3b0b4" stroke-width="2"/>
<path d="M 926 575.56l 10 -2v 15l -10 2Z" fill="#44516e"/>
<path d="M 924 591.56l 14 -3" stroke="#c3b0b4" stroke-width="2"/>
<path d="M 810 634.24l 10 -2v 15l -10 2Z" fill="#f4c9a3"/>
<path d="M 808 650.24l 14 -3" stroke="#c3b0b4" stroke-width="2"/>
<path d="M 839 627.57l 10 -2v 15l -10 2Z" fill="#44516e"/>
<path d="M 837 643.57l 14 -3" stroke="#c3b0b4" stroke-width="2"/>
<path d="M 868 620.9l 10 -2v 15l -10 2Z" fill="#44516e"/>
<path d="M 866 636.9l 14 -3" stroke="#c3b0b4" stroke-width="2"/>
<path d="M 897 614.23l 10 -2v 15l -10 2Z" fill="#f4c9a3"/>
<path d="M 895 630.23l 14 -3" stroke="#c3b0b4" stroke-width="2"/>
<path d="M 926 607.56l 10 -2v 15l -10 2Z" fill="#f4c9a3"/>
<path d="M 924 623.56l 14 -3" stroke="#c3b0b4" stroke-width="2"/>
<path d="M 798 455l 164 -37.72 97 -53.35" fill="none" stroke="#c3aeb5" stroke-width="3" opacity=".5"/>
<path d="M 798 519l 164 -37.72 97 -53.35" fill="none" stroke="#c3aeb5" stroke-width="3" opacity=".5"/>
<path d="M 798 583l 164 -37.72 97 -53.35" fill="none" stroke="#c3aeb5" stroke-width="3" opacity=".5"/>
<path d="M 991 834l 181 -41.63v -494l -181 41.63Z" fill="#6d708e"/>
<path d="M 1172 792.37l 69 -37.95v -494l -69 37.95Z" fill="#354764"/>
<path d="M 991 340l 69 -37.95 181 -41.63 -69 37.95Z" fill="#ccbabf"/>
<path d="M 1003 359.24l 10 -2v 15l -10 2Z" fill="#354260"/>
<path d="M 1001 375.24l 14 -3" stroke="#c3b0b4" stroke-width="2"/>
<path d="M 1032 352.57l 10 -2v 15l -10 2Z" fill="#f4c9a3"/>
<path d="M 1030 368.57l 14 -3" stroke="#c3b0b4" stroke-width="2"/>
<path d="M 1061 345.9l 10 -2v 15l -10 2Z" fill="#354260"/>
<path d="M 1059 361.9l 14 -3" stroke="#c3b0b4" stroke-width="2"/>
<path d="M 1090 339.23l 10 -2v 15l -10 2Z" fill="#44516e"/>
<path d="M 1088 355.23l 14 -3" stroke="#c3b0b4" stroke-width="2"/>
<path d="M 1119 332.56l 10 -2v 15l -10 2Z" fill="#44516e"/>
<path d="M 1117 348.56l 14 -3" stroke="#c3b0b4" stroke-width="2"/>
<path d="M 1148 325.89l 10 -2v 15l -10 2Z" fill="#354260"/>
<path d="M 1146 341.89l 14 -3" stroke="#c3b0b4" stroke-width="2"/>
<path d="M 1003 391.24l 10 -2v 15l -10 2Z" fill="#354260"/>
<path d="M 1001 407.24l 14 -3" stroke="#c3b0b4" stroke-width="2"/>
<path d="M 1032 384.57l 10 -2v 15l -10 2Z" fill="#44516e"/>
<path d="M 1030 400.57l 14 -3" stroke="#c3b0b4" stroke-width="2"/>
<path d="M 1061 377.9l 10 -2v 15l -10 2Z" fill="#354260"/>
<path d="M 1059 393.9l 14 -3" stroke="#c3b0b4" stroke-width="2"/>
<path d="M 1090 371.23l 10 -2v 15l -10 2Z" fill="#354260"/>
<path d="M 1088 387.23l 14 -3" stroke="#c3b0b4" stroke-width="2"/>
<path d="M 1119 364.56l 10 -2v 15l -10 2Z" fill="#354260"/>
<path d="M 1117 380.56l 14 -3" stroke="#c3b0b4" stroke-width="2"/>
<path d="M 1148 357.89l 10 -2v 15l -10 2Z" fill="#f4c9a3"/>
<path d="M 1146 373.89l 14 -3" stroke="#c3b0b4" stroke-width="2"/>
<path d="M 1003 423.24l 10 -2v 15l -10 2Z" fill="#354260"/>
<path d="M 1001 439.24l 14 -3" stroke="#c3b0b4" stroke-width="2"/>
<path d="M 1032 416.57l 10 -2v 15l -10 2Z" fill="#44516e"/>
<path d="M 1030 432.57l 14 -3" stroke="#c3b0b4" stroke-width="2"/>
<path d="M 1061 409.9l 10 -2v 15l -10 2Z" fill="#354260"/>
<path d="M 1059 425.9l 14 -3" stroke="#c3b0b4" stroke-width="2"/>
<path d="M 1090 403.23l 10 -2v 15l -10 2Z" fill="#f4c9a3"/>
<path d="M 1088 419.23l 14 -3" stroke="#c3b0b4" stroke-width="2"/>
<path d="M 1119 396.56l 10 -2v 15l -10 2Z" fill="#f4c9a3"/>
<path d="M 1117 412.56l 14 -3" stroke="#c3b0b4" stroke-width="2"/>
<path d="M 1148 389.89l 10 -2v 15l -10 2Z" fill="#f4c9a3"/>
<path d="M 1146 405.89l 14 -3" stroke="#c3b0b4" stroke-width="2"/>
<path d="M 1003 455.24l 10 -2v 15l -10 2Z" fill="#f4c9a3"/>
<path d="M 1001 471.24l 14 -3" stroke="#c3b0b4" stroke-width="2"/>
<path d="M 1032 448.57l 10 -2v 15l -10 2Z" fill="#44516e"/>
<path d="M 1030 464.57l 14 -3" stroke="#c3b0b4" stroke-width="2"/>
<path d="M 1061 441.9l 10 -2v 15l -10 2Z" fill="#354260"/>
<path d="M 1059 457.9l 14 -3" stroke="#c3b0b4" stroke-width="2"/>
<path d="M 1090 435.23l 10 -2v 15l -10 2Z" fill="#f4c9a3"/>
<path d="M 1088 451.23l 14 -3" stroke="#c3b0b4" stroke-width="2"/>
<path d="M 1119 428.56l 10 -2v 15l -10 2Z" fill="#354260"/>
<path d="M 1117 444.56l 14 -3" stroke="#c3b0b4" stroke-width="2"/>
<path d="M 1148 421.89l 10 -2v 15l -10 2Z" fill="#354260"/>
<path d="M 1146 437.89l 14 -3" stroke="#c3b0b4" stroke-width="2"/>
<path d="M 1003 487.24l 10 -2v 15l -10 2Z" fill="#44516e"/>
<path d="M 1001 503.24l 14 -3" stroke="#c3b0b4" stroke-width="2"/>
<path d="M 1032 480.57l 10 -2v 15l -10 2Z" fill="#44516e"/>
<path d="M 1030 496.57l 14 -3" stroke="#c3b0b4" stroke-width="2"/>
<path d="M 1061 473.9l 10 -2v 15l -10 2Z" fill="#354260"/>
<path d="M 1059 489.9l 14 -3" stroke="#c3b0b4" stroke-width="2"/>
<path d="M 1090 467.23l 10 -2v 15l -10 2Z" fill="#f4c9a3"/>
<path d="M 1088 483.23l 14 -3" stroke="#c3b0b4" stroke-width="2"/>
<path d="M 1119 460.56l 10 -2v 15l -10 2Z" fill="#354260"/>
<path d="M 1117 476.56l 14 -3" stroke="#c3b0b4" stroke-width="2"/>
<path d="M 1148 453.89l 10 -2v 15l -10 2Z" fill="#44516e"/>
<path d="M 1146 469.89l 14 -3" stroke="#c3b0b4" stroke-width="2"/>
<path d="M 1003 519.24l 10 -2v 15l -10 2Z" fill="#f4c9a3"/>
<path d="M 1001 535.24l 14 -3" stroke="#c3b0b4" stroke-width="2"/>
<path d="M 1032 512.57l 10 -2v 15l -10 2Z" fill="#f4c9a3"/>
<path d="M 1030 528.57l 14 -3" stroke="#c3b0b4" stroke-width="2"/>
<path d="M 1061 505.9l 10 -2v 15l -10 2Z" fill="#354260"/>
<path d="M 1059 521.9l 14 -3" stroke="#c3b0b4" stroke-width="2"/>
<path d="M 1090 499.23l 10 -2v 15l -10 2Z" fill="#354260"/>
<path d="M 1088 515.23l 14 -3" stroke="#c3b0b4" stroke-width="2"/>
<path d="M 1119 492.56l 10 -2v 15l -10 2Z" fill="#354260"/>
<path d="M 1117 508.56l 14 -3" stroke="#c3b0b4" stroke-width="2"/>
<path d="M 1148 485.89l 10 -2v 15l -10 2Z" fill="#44516e"/>
<path d="M 1146 501.89l 14 -3" stroke="#c3b0b4" stroke-width="2"/>
<path d="M 1003 551.24l 10 -2v 15l -10 2Z" fill="#44516e"/>
<path d="M 1001 567.24l 14 -3" stroke="#c3b0b4" stroke-width="2"/>
<path d="M 1032 544.57l 10 -2v 15l -10 2Z" fill="#f4c9a3"/>
<path d="M 1030 560.57l 14 -3" stroke="#c3b0b4" stroke-width="2"/>
<path d="M 1061 537.9l 10 -2v 15l -10 2Z" fill="#f4c9a3"/>
<path d="M 1059 553.9l 14 -3" stroke="#c3b0b4" stroke-width="2"/>
<path d="M 1090 531.23l 10 -2v 15l -10 2Z" fill="#f4c9a3"/>
<path d="M 1088 547.23l 14 -3" stroke="#c3b0b4" stroke-width="2"/>
<path d="M 1119 524.56l 10 -2v 15l -10 2Z" fill="#f4c9a3"/>
<path d="M 1117 540.56l 14 -3" stroke="#c3b0b4" stroke-width="2"/>
<path d="M 1148 517.89l 10 -2v 15l -10 2Z" fill="#f4c9a3"/>
<path d="M 1146 533.89l 14 -3" stroke="#c3b0b4" stroke-width="2"/>
<path d="M 1003 583.24l 10 -2v 15l -10 2Z" fill="#354260"/>
<path d="M 1001 599.24l 14 -3" stroke="#c3b0b4" stroke-width="2"/>
<path d="M 1032 576.57l 10 -2v 15l -10 2Z" fill="#44516e"/>
<path d="M 1030 592.57l 14 -3" stroke="#c3b0b4" stroke-width="2"/>
<path d="M 1061 569.9l 10 -2v 15l -10 2Z" fill="#f4c9a3"/>
<path d="M 1059 585.9l 14 -3" stroke="#c3b0b4" stroke-width="2"/>
<path d="M 1090 563.23l 10 -2v 15l -10 2Z" fill="#354260"/>
<path d="M 1088 579.23l 14 -3" stroke="#c3b0b4" stroke-width="2"/>
<path d="M 1119 556.56l 10 -2v 15l -10 2Z" fill="#354260"/>
<path d="M 1117 572.56l 14 -3" stroke="#c3b0b4" stroke-width="2"/>
<path d="M 1148 549.89l 10 -2v 15l -10 2Z" fill="#44516e"/>
<path d="M 1146 565.89l 14 -3" stroke="#c3b0b4" stroke-width="2"/>
<path d="M 1003 615.24l 10 -2v 15l -10 2Z" fill="#f4c9a3"/>
<path d="M 1001 631.24l 14 -3" stroke="#c3b0b4" stroke-width="2"/>
<path d="M 1032 608.57l 10 -2v 15l -10 2Z" fill="#44516e"/>
<path d="M 1030 624.57l 14 -3" stroke="#c3b0b4" stroke-width="2"/>
<path d="M 1061 601.9l 10 -2v 15l -10 2Z" fill="#354260"/>
<path d="M 1059 617.9l 14 -3" stroke="#c3b0b4" stroke-width="2"/>
<path d="M 1090 595.23l 10 -2v 15l -10 2Z" fill="#44516e"/>
<path d="M 1088 611.23l 14 -3" stroke="#c3b0b4" stroke-width="2"/>
<path d="M 1119 588.56l 10 -2v 15l -10 2Z" fill="#44516e"/>
<path d="M 1117 604.56l 14 -3" stroke="#c3b0b4" stroke-width="2"/>
<path d="M 1148 581.89l 10 -2v 15l -10 2Z" fill="#354260"/>
<path d="M 1146 597.89l 14 -3" stroke="#c3b0b4" stroke-width="2"/>
<path d="M 1003 647.24l 10 -2v 15l -10 2Z" fill="#f4c9a3"/>
<path d="M 1001 663.24l 14 -3" stroke="#c3b0b4" stroke-width="2"/>
<path d="M 1032 640.57l 10 -2v 15l -10 2Z" fill="#354260"/>
<path d="M 1030 656.57l 14 -3" stroke="#c3b0b4" stroke-width="2"/>
<path d="M 1061 633.9l 10 -2v 15l -10 2Z" fill="#44516e"/>
<path d="M 1059 649.9l 14 -3" stroke="#c3b0b4" stroke-width="2"/>
<path d="M 1090 627.23l 10 -2v 15l -10 2Z" fill="#f4c9a3"/>
<path d="M 1088 643.23l 14 -3" stroke="#c3b0b4" stroke-width="2"/>
<path d="M 1119 620.56l 10 -2v 15l -10 2Z" fill="#f4c9a3"/>
<path d="M 1117 636.56l 14 -3" stroke="#c3b0b4" stroke-width="2"/>
<path d="M 1148 613.89l 10 -2v 15l -10 2Z" fill="#f4c9a3"/>
<path d="M 1146 629.89l 14 -3" stroke="#c3b0b4" stroke-width="2"/>
<path d="M 1003 679.24l 10 -2v 15l -10 2Z" fill="#f4c9a3"/>
<path d="M 1001 695.24l 14 -3" stroke="#c3b0b4" stroke-width="2"/>
<path d="M 1032 672.57l 10 -2v 15l -10 2Z" fill="#44516e"/>
<path d="M 1030 688.57l 14 -3" stroke="#c3b0b4" stroke-width="2"/>
<path d="M 1061 665.9l 10 -2v 15l -10 2Z" fill="#44516e"/>
<path d="M 1059 681.9l 14 -3" stroke="#c3b0b4" stroke-width="2"/>
<path d="M 1090 659.23l 10 -2v 15l -10 2Z" fill="#44516e"/>
<path d="M 1088 675.23l 14 -3" stroke="#c3b0b4" stroke-width="2"/>
<path d="M 1119 652.56l 10 -2v 15l -10 2Z" fill="#f4c9a3"/>
<path d="M 1117 668.56l 14 -3" stroke="#c3b0b4" stroke-width="2"/>
<path d="M 1148 645.89l 10 -2v 15l -10 2Z" fill="#354260"/>
<path d="M 1146 661.89l 14 -3" stroke="#c3b0b4" stroke-width="2"/>
<path d="M 1003 711.24l 10 -2v 15l -10 2Z" fill="#354260"/>
<path d="M 1001 727.24l 14 -3" stroke="#c3b0b4" stroke-width="2"/>
<path d="M 1032 704.57l 10 -2v 15l -10 2Z" fill="#f4c9a3"/>
<path d="M 1030 720.57l 14 -3" stroke="#c3b0b4" stroke-width="2"/>
<path d="M 1061 697.9l 10 -2v 15l -10 2Z" fill="#f4c9a3"/>
<path d="M 1059 713.9l 14 -3" stroke="#c3b0b4" stroke-width="2"/>
<path d="M 1090 691.23l 10 -2v 15l -10 2Z" fill="#f4c9a3"/>
<path d="M 1088 707.23l 14 -3" stroke="#c3b0b4" stroke-width="2"/>
<path d="M 1119 684.56l 10 -2v 15l -10 2Z" fill="#354260"/>
<path d="M 1117 700.56l 14 -3" stroke="#c3b0b4" stroke-width="2"/>
<path d="M 1148 677.89l 10 -2v 15l -10 2Z" fill="#354260"/>
<path d="M 1146 693.89l 14 -3" stroke="#c3b0b4" stroke-width="2"/>
<path d="M 1003 743.24l 10 -2v 15l -10 2Z" fill="#354260"/>
<path d="M 1001 759.24l 14 -3" stroke="#c3b0b4" stroke-width="2"/>
<path d="M 1032 736.57l 10 -2v 15l -10 2Z" fill="#44516e"/>
<path d="M 1030 752.57l 14 -3" stroke="#c3b0b4" stroke-width="2"/>
<path d="M 1061 729.9l 10 -2v 15l -10 2Z" fill="#354260"/>
<path d="M 1059 745.9l 14 -3" stroke="#c3b0b4" stroke-width="2"/>
<path d="M 1090 723.23l 10 -2v 15l -10 2Z" fill="#44516e"/>
<path d="M 1088 739.23l 14 -3" stroke="#c3b0b4" stroke-width="2"/>
<path d="M 1119 716.56l 10 -2v 15l -10 2Z" fill="#f4c9a3"/>
<path d="M 1117 732.56l 14 -3" stroke="#c3b0b4" stroke-width="2"/>
<path d="M 1148 709.89l 10 -2v 15l -10 2Z" fill="#44516e"/>
<path d="M 1146 725.89l 14 -3" stroke="#c3b0b4" stroke-width="2"/>
<path d="M 1003 775.24l 10 -2v 15l -10 2Z" fill="#44516e"/>
<path d="M 1001 791.24l 14 -3" stroke="#c3b0b4" stroke-width="2"/>
<path d="M 1032 768.57l 10 -2v 15l -10 2Z" fill="#f4c9a3"/>
<path d="M 1030 784.57l 14 -3" stroke="#c3b0b4" stroke-width="2"/>
<path d="M 1061 761.9l 10 -2v 15l -10 2Z" fill="#354260"/>
<path d="M 1059 777.9l 14 -3" stroke="#c3b0b4" stroke-width="2"/>
<path d="M 1090 755.23l 10 -2v 15l -10 2Z" fill="#44516e"/>
<path d="M 1088 771.23l 14 -3" stroke="#c3b0b4" stroke-width="2"/>
<path d="M 1119 748.56l 10 -2v 15l -10 2Z" fill="#f4c9a3"/>
<path d="M 1117 764.56l 14 -3" stroke="#c3b0b4" stroke-width="2"/>
<path d="M 1148 741.89l 10 -2v 15l -10 2Z" fill="#354260"/>
<path d="M 1146 757.89l 14 -3" stroke="#c3b0b4" stroke-width="2"/>
<path d="M 991 404l 181 -41.63 69 -37.95" fill="none" stroke="#c3aeb5" stroke-width="3" opacity=".5"/>
<path d="M 991 468l 181 -41.63 69 -37.95" fill="none" stroke="#c3aeb5" stroke-width="3" opacity=".5"/>
<path d="M 991 532l 181 -41.63 69 -37.95" fill="none" stroke="#c3aeb5" stroke-width="3" opacity=".5"/>
<path d="M 991 596l 181 -41.63 69 -37.95" fill="none" stroke="#c3aeb5" stroke-width="3" opacity=".5"/>
<path d="M 991 660l 181 -41.63 69 -37.95" fill="none" stroke="#c3aeb5" stroke-width="3" opacity=".5"/>
<path d="M 991 724l 181 -41.63 69 -37.95" fill="none" stroke="#c3aeb5" stroke-width="3" opacity=".5"/>
<g transform="translate(1087 196) rotate(90)">
<path d="M 0 0l 120 -27.6v -330l -120 27.6Z" fill="#8791ac"/>
<path d="M 120 -27.6l 64 -35.2v -330l -64 35.2Z" fill="#394d72"/>
<path d="M 0 -330l 64 -35.2 120 -27.6 -64 35.2Z" fill="#ccbabf"/>
<path d="M 12 -310.76l 10 -2v 15l -10 2Z" fill="#354260"/>
<path d="M 10 -294.76l 14 -3" stroke="#c3b0b4" stroke-width="2"/>
<path d="M 41 -317.43l 10 -2v 15l -10 2Z" fill="#44516e"/>
<path d="M 39 -301.43l 14 -3" stroke="#c3b0b4" stroke-width="2"/>
<path d="M 70 -324.1l 10 -2v 15l -10 2Z" fill="#44516e"/>
<path d="M 68 -308.1l 14 -3" stroke="#c3b0b4" stroke-width="2"/>
<path d="M 99 -330.77l 10 -2v 15l -10 2Z" fill="#f4c9a3"/>
<path d="M 97 -314.77l 14 -3" stroke="#c3b0b4" stroke-width="2"/>
<path d="M 12 -278.76l 10 -2v 15l -10 2Z" fill="#44516e"/>
<path d="M 10 -262.76l 14 -3" stroke="#c3b0b4" stroke-width="2"/>
<path d="M 41 -285.43l 10 -2v 15l -10 2Z" fill="#44516e"/>
<path d="M 39 -269.43l 14 -3" stroke="#c3b0b4" stroke-width="2"/>
<path d="M 70 -292.1l 10 -2v 15l -10 2Z" fill="#44516e"/>
<path d="M 68 -276.1l 14 -3" stroke="#c3b0b4" stroke-width="2"/>
<path d="M 99 -298.77l 10 -2v 15l -10 2Z" fill="#354260"/>
<path d="M 97 -282.77l 14 -3" stroke="#c3b0b4" stroke-width="2"/>
<path d="M 12 -246.76l 10 -2v 15l -10 2Z" fill="#354260"/>
<path d="M 10 -230.76l 14 -3" stroke="#c3b0b4" stroke-width="2"/>
<path d="M 41 -253.43l 10 -2v 15l -10 2Z" fill="#354260"/>
<path d="M 39 -237.43l 14 -3" stroke="#c3b0b4" stroke-width="2"/>
<path d="M 70 -260.1l 10 -2v 15l -10 2Z" fill="#44516e"/>
<path d="M 68 -244.10000000000002l 14 -3" stroke="#c3b0b4" stroke-width="2"/>
<path d="M 99 -266.77l 10 -2v 15l -10 2Z" fill="#354260"/>
<path d="M 97 -250.76999999999998l 14 -3" stroke="#c3b0b4" stroke-width="2"/>
<path d="M 12 -214.76l 10 -2v 15l -10 2Z" fill="#354260"/>
<path d="M 10 -198.76l 14 -3" stroke="#c3b0b4" stroke-width="2"/>
<path d="M 41 -221.43l 10 -2v 15l -10 2Z" fill="#f4c9a3"/>
<path d="M 39 -205.43l 14 -3" stroke="#c3b0b4" stroke-width="2"/>
<path d="M 70 -228.1l 10 -2v 15l -10 2Z" fill="#44516e"/>
<path d="M 68 -212.1l 14 -3" stroke="#c3b0b4" stroke-width="2"/>
<path d="M 99 -234.77l 10 -2v 15l -10 2Z" fill="#f4c9a3"/>
<path d="M 97 -218.77l 14 -3" stroke="#c3b0b4" stroke-width="2"/>
<path d="M 12 -182.76l 10 -2v 15l -10 2Z" fill="#354260"/>
<path d="M 10 -166.76l 14 -3" stroke="#c3b0b4" stroke-width="2"/>
<path d="M 41 -189.43l 10 -2v 15l -10 2Z" fill="#44516e"/>
<path d="M 39 -173.43l 14 -3" stroke="#c3b0b4" stroke-width="2"/>
<path d="M 70 -196.1l 10 -2v 15l -10 2Z" fill="#354260"/>
<path d="M 68 -180.1l 14 -3" stroke="#c3b0b4" stroke-width="2"/>
<path d="M 99 -202.77l 10 -2v 15l -10 2Z" fill="#f4c9a3"/>
<path d="M 97 -186.77l 14 -3" stroke="#c3b0b4" stroke-width="2"/>
<path d="M 12 -150.76l 10 -2v 15l -10 2Z" fill="#f4c9a3"/>
<path d="M 10 -134.76l 14 -3" stroke="#c3b0b4" stroke-width="2"/>
<path d="M 41 -157.43l 10 -2v 15l -10 2Z" fill="#f4c9a3"/>
<path d="M 39 -141.43l 14 -3" stroke="#c3b0b4" stroke-width="2"/>
<path d="M 70 -164.1l 10 -2v 15l -10 2Z" fill="#f4c9a3"/>
<path d="M 68 -148.1l 14 -3" stroke="#c3b0b4" stroke-width="2"/>
<path d="M 99 -170.77l 10 -2v 15l -10 2Z" fill="#f4c9a3"/>
<path d="M 97 -154.77l 14 -3" stroke="#c3b0b4" stroke-width="2"/>
<path d="M 12 -118.76l 10 -2v 15l -10 2Z" fill="#44516e"/>
<path d="M 10 -102.76l 14 -3" stroke="#c3b0b4" stroke-width="2"/>
<path d="M 41 -125.43l 10 -2v 15l -10 2Z" fill="#44516e"/>
<path d="M 39 -109.43l 14 -3" stroke="#c3b0b4" stroke-width="2"/>
<path d="M 70 -132.1l 10 -2v 15l -10 2Z" fill="#f4c9a3"/>
<path d="M 68 -116.1l 14 -3" stroke="#c3b0b4" stroke-width="2"/>
<path d="M 99 -138.77l 10 -2v 15l -10 2Z" fill="#f4c9a3"/>
<path d="M 97 -122.77000000000001l 14 -3" stroke="#c3b0b4" stroke-width="2"/>
<path d="M 12 -86.76l 10 -2v 15l -10 2Z" fill="#354260"/>
<path d="M 10 -70.76l 14 -3" stroke="#c3b0b4" stroke-width="2"/>
<path d="M 41 -93.43l 10 -2v 15l -10 2Z" fill="#354260"/>
<path d="M 39 -77.43l 14 -3" stroke="#c3b0b4" stroke-width="2"/>
<path d="M 70 -100.1l 10 -2v 15l -10 2Z" fill="#44516e"/>
<path d="M 68 -84.1l 14 -3" stroke="#c3b0b4" stroke-width="2"/>
<path d="M 99 -106.77l 10 -2v 15l -10 2Z" fill="#f4c9a3"/>
<path d="M 97 -90.77l 14 -3" stroke="#c3b0b4" stroke-width="2"/>
<path d="M 12 -54.76l 10 -2v 15l -10 2Z" fill="#f4c9a3"/>
<path d="M 10 -38.76l 14 -3" stroke="#c3b0b4" stroke-width="2"/>
<path d="M 41 -61.43l 10 -2v 15l -10 2Z" fill="#44516e"/>
<path d="M 39 -45.43l 14 -3" stroke="#c3b0b4" stroke-width="2"/>
<path d="M 70 -68.1l 10 -2v 15l -10 2Z" fill="#f4c9a3"/>
<path d="M 68 -52.099999999999994l 14 -3" stroke="#c3b0b4" stroke-width="2"/>
<path d="M 99 -74.77l 10 -2v 15l -10 2Z" fill="#f4c9a3"/>
<path d="M 97 -58.769999999999996l 14 -3" stroke="#c3b0b4" stroke-width="2"/>
<path d="M 0 -266l 120 -27.6 64 -35.2" fill="none" stroke="#c3aeb5" stroke-width="3" opacity=".5"/>
<path d="M 0 -202l 120 -27.6 64 -35.2" fill="none" stroke="#c3aeb5" stroke-width="3" opacity=".5"/>
<path d="M 0 -138l 120 -27.6 64 -35.2" fill="none" stroke="#c3aeb5" stroke-width="3" opacity=".5"/>
<path d="M 0 -74l 120 -27.6 64 -35.2" fill="none" stroke="#c3aeb5" stroke-width="3" opacity=".5"/>
<path d="M 146 8l 96 -22.080000000000002v -200l -96 22.080000000000002Z" fill="#b2a2b7"/>
<path d="M 242 -14.080000000000002l 44 -24.200000000000003v -200l -44 24.200000000000003Z" fill="#596381"/>
<path d="M 146 -192l 44 -24.200000000000003 96 -22.080000000000002 -44 24.200000000000003Z" fill="#ccbabf"/>
<path d="M 158 -172.76l 10 -2v 15l -10 2Z" fill="#f4c9a3"/>
<path d="M 156 -156.76l 14 -3" stroke="#c3b0b4" stroke-width="2"/>
<path d="M 187 -179.43l 10 -2v 15l -10 2Z" fill="#354260"/>
<path d="M 185 -163.43l 14 -3" stroke="#c3b0b4" stroke-width="2"/>
<path d="M 216 -186.1l 10 -2v 15l -10 2Z" fill="#f4c9a3"/>
<path d="M 214 -170.1l 14 -3" stroke="#c3b0b4" stroke-width="2"/>
<path d="M 158 -140.76l 10 -2v 15l -10 2Z" fill="#f4c9a3"/>
<path d="M 156 -124.75999999999999l 14 -3" stroke="#c3b0b4" stroke-width="2"/>
<path d="M 187 -147.43l 10 -2v 15l -10 2Z" fill="#f4c9a3"/>
<path d="M 185 -131.43l 14 -3" stroke="#c3b0b4" stroke-width="2"/>
<path d="M 216 -154.1l 10 -2v 15l -10 2Z" fill="#44516e"/>
<path d="M 214 -138.1l 14 -3" stroke="#c3b0b4" stroke-width="2"/>
<path d="M 158 -108.76l 10 -2v 15l -10 2Z" fill="#44516e"/>
<path d="M 156 -92.76l 14 -3" stroke="#c3b0b4" stroke-width="2"/>
<path d="M 187 -115.43l 10 -2v 15l -10 2Z" fill="#f4c9a3"/>
<path d="M 185 -99.43l 14 -3" stroke="#c3b0b4" stroke-width="2"/>
<path d="M 216 -122.1l 10 -2v 15l -10 2Z" fill="#44516e"/>
<path d="M 214 -106.1l 14 -3" stroke="#c3b0b4" stroke-width="2"/>
<path d="M 158 -76.76l 10 -2v 15l -10 2Z" fill="#f4c9a3"/>
<path d="M 156 -60.760000000000005l 14 -3" stroke="#c3b0b4" stroke-width="2"/>
<path d="M 187 -83.43l 10 -2v 15l -10 2Z" fill="#354260"/>
<path d="M 185 -67.43l 14 -3" stroke="#c3b0b4" stroke-width="2"/>
<path d="M 216 -90.1l 10 -2v 15l -10 2Z" fill="#44516e"/>
<path d="M 214 -74.1l 14 -3" stroke="#c3b0b4" stroke-width="2"/>
<path d="M 158 -44.76l 10 -2v 15l -10 2Z" fill="#354260"/>
<path d="M 156 -28.759999999999998l 14 -3" stroke="#c3b0b4" stroke-width="2"/>
<path d="M 187 -51.43l 10 -2v 15l -10 2Z" fill="#f4c9a3"/>
<path d="M 185 -35.43l 14 -3" stroke="#c3b0b4" stroke-width="2"/>
<path d="M 216 -58.1l 10 -2v 15l -10 2Z" fill="#f4c9a3"/>
<path d="M 214 -42.1l 14 -3" stroke="#c3b0b4" stroke-width="2"/>
<path d="M 146 -128l 96 -22.080000000000002 44 -24.200000000000003" fill="none" stroke="#c3aeb5" stroke-width="3" opacity=".5"/>
<path d="M 146 -64l 96 -22.080000000000002 44 -24.200000000000003" fill="none" stroke="#c3aeb5" stroke-width="3" opacity=".5"/>
</g>
<g transform="translate(494 174) rotate(180)">
<path d="M 0 0l 91 -20.93v -190l -91 20.93Z" fill="#8e849f"/>
<path d="M 91 -20.93l 49 -26.950000000000003v -190l -49 26.950000000000003Z" fill="#455271"/>
<path d="M 0 -190l 49 -26.950000000000003 91 -20.93 -49 26.950000000000003Z" fill="#ccbabf"/>
<path d="M 12 -170.76l 10 -2v 15l -10 2Z" fill="#44516e"/>
<path d="M 10 -154.76l 14 -3" stroke="#c3b0b4" stroke-width="2"/>
<path d="M 41 -177.43l 10 -2v 15l -10 2Z" fill="#f4c9a3"/>
<path d="M 39 -161.43l 14 -3" stroke="#c3b0b4" stroke-width="2"/>
<path d="M 70 -184.1l 10 -2v 15l -10 2Z" fill="#44516e"/>
<path d="M 68 -168.1l 14 -3" stroke="#c3b0b4" stroke-width="2"/>
<path d="M 12 -138.76l 10 -2v 15l -10 2Z" fill="#354260"/>
<path d="M 10 -122.75999999999999l 14 -3" stroke="#c3b0b4" stroke-width="2"/>
<path d="M 41 -145.43l 10 -2v 15l -10 2Z" fill="#44516e"/>
<path d="M 39 -129.43l 14 -3" stroke="#c3b0b4" stroke-width="2"/>
<path d="M 70 -152.1l 10 -2v 15l -10 2Z" fill="#f4c9a3"/>
<path d="M 68 -136.1l 14 -3" stroke="#c3b0b4" stroke-width="2"/>
<path d="M 12 -106.76l 10 -2v 15l -10 2Z" fill="#354260"/>
<path d="M 10 -90.76l 14 -3" stroke="#c3b0b4" stroke-width="2"/>
<path d="M 41 -113.43l 10 -2v 15l -10 2Z" fill="#f4c9a3"/>
<path d="M 39 -97.43l 14 -3" stroke="#c3b0b4" stroke-width="2"/>
<path d="M 70 -120.1l 10 -2v 15l -10 2Z" fill="#354260"/>
<path d="M 68 -104.1l 14 -3" stroke="#c3b0b4" stroke-width="2"/>
<path d="M 12 -74.76l 10 -2v 15l -10 2Z" fill="#f4c9a3"/>
<path d="M 10 -58.760000000000005l 14 -3" stroke="#c3b0b4" stroke-width="2"/>
<path d="M 41 -81.43l 10 -2v 15l -10 2Z" fill="#44516e"/>
<path d="M 39 -65.43l 14 -3" stroke="#c3b0b4" stroke-width="2"/>
<path d="M 70 -88.1l 10 -2v 15l -10 2Z" fill="#354260"/>
<path d="M 68 -72.1l 14 -3" stroke="#c3b0b4" stroke-width="2"/>
<path d="M 12 -42.76l 10 -2v 15l -10 2Z" fill="#f4c9a3"/>
<path d="M 10 -26.759999999999998l 14 -3" stroke="#c3b0b4" stroke-width="2"/>
<path d="M 41 -49.43l 10 -2v 15l -10 2Z" fill="#354260"/>
<path d="M 39 -33.43l 14 -3" stroke="#c3b0b4" stroke-width="2"/>
<path d="M 70 -56.1l 10 -2v 15l -10 2Z" fill="#f4c9a3"/>
<path d="M 68 -40.1l 14 -3" stroke="#c3b0b4" stroke-width="2"/>
<path d="M 0 -126l 91 -20.93 49 -26.950000000000003" fill="none" stroke="#c3aeb5" stroke-width="3" opacity=".5"/>
</g>
<path d="M -35 846L 537 397 677 406 209 900H -35Z" fill="#363e62"/>
<path d="M -35 821L 535 374 677 399 211 881Z" fill="url(#stair)"/>
<path d="M -35.0 821.0L 211.0 881.0 211.0 888.0 -35.0 828.0Z" fill="#65627f"/>
<path d="M -18.235294117647058 807.8529411764706L 224.7058823529412 866.8235294117648" stroke="#f2d9c6" stroke-width="2" opacity=".8"/>
<path d="M -18.235294117647058 807.8529411764706L 224.7058823529412 866.8235294117648 224.7058823529412 873.8235294117648 -18.235294117647058 814.8529411764706Z" fill="#65627f"/>
<path d="M -1.470588235294116 794.7058823529412L 238.41176470588235 852.6470588235294" stroke="#f2d9c6" stroke-width="2" opacity=".8"/>
<path d="M -1.470588235294116 794.7058823529412L 238.41176470588235 852.6470588235294 238.41176470588235 859.6470588235294 -1.470588235294116 801.7058823529412Z" fill="#65627f"/>
<path d="M 15.294117647058826 781.5588235294117L 252.11764705882354 838.4705882352941" stroke="#f2d9c6" stroke-width="2" opacity=".8"/>
<path d="M 15.294117647058826 781.5588235294117L 252.11764705882354 838.4705882352941 252.11764705882354 845.4705882352941 15.294117647058826 788.5588235294117Z" fill="#65627f"/>
<path d="M 32.05882352941177 768.4117647058823L 265.8235294117647 824.2941176470588" stroke="#f2d9c6" stroke-width="2" opacity=".8"/>
<path d="M 32.05882352941177 768.4117647058823L 265.8235294117647 824.2941176470588 265.8235294117647 831.2941176470588 32.05882352941177 775.4117647058823Z" fill="#65627f"/>
<path d="M 48.82352941176471 755.2647058823529L 279.52941176470586 810.1176470588235" stroke="#f2d9c6" stroke-width="2" opacity=".8"/>
<path d="M 48.82352941176471 755.2647058823529L 279.52941176470586 810.1176470588235 279.52941176470586 817.1176470588235 48.82352941176471 762.2647058823529Z" fill="#65627f"/>
<path d="M 65.58823529411765 742.1176470588235L 293.2352941176471 795.9411764705883" stroke="#f2d9c6" stroke-width="2" opacity=".8"/>
<path d="M 65.58823529411765 742.1176470588235L 293.2352941176471 795.9411764705883 293.2352941176471 802.9411764705883 65.58823529411765 749.1176470588235Z" fill="#65627f"/>
<path d="M 82.35294117647058 728.9705882352941L 306.94117647058823 781.7647058823529" stroke="#f2d9c6" stroke-width="2" opacity=".8"/>
<path d="M 82.35294117647058 728.9705882352941L 306.94117647058823 781.7647058823529 306.94117647058823 788.7647058823529 82.35294117647058 735.9705882352941Z" fill="#65627f"/>
<path d="M 99.11764705882354 715.8235294117648L 320.6470588235294 767.5882352941177" stroke="#f2d9c6" stroke-width="2" opacity=".8"/>
<path d="M 99.11764705882354 715.8235294117648L 320.6470588235294 767.5882352941177 320.6470588235294 774.5882352941177 99.11764705882354 722.8235294117648Z" fill="#65627f"/>
<path d="M 115.88235294117646 702.6764705882352L 334.3529411764706 753.4117647058823" stroke="#f2d9c6" stroke-width="2" opacity=".8"/>
<path d="M 115.88235294117646 702.6764705882352L 334.3529411764706 753.4117647058823 334.3529411764706 760.4117647058823 115.88235294117646 709.6764705882352Z" fill="#65627f"/>
<path d="M 132.64705882352942 689.5294117647059L 348.05882352941177 739.2352941176471" stroke="#f2d9c6" stroke-width="2" opacity=".8"/>
<path d="M 132.64705882352942 689.5294117647059L 348.05882352941177 739.2352941176471 348.05882352941177 746.2352941176471 132.64705882352942 696.5294117647059Z" fill="#65627f"/>
<path d="M 149.41176470588238 676.3823529411765L 361.7647058823529 725.0588235294117" stroke="#f2d9c6" stroke-width="2" opacity=".8"/>
<path d="M 149.41176470588238 676.3823529411765L 361.7647058823529 725.0588235294117 361.7647058823529 732.0588235294117 149.41176470588238 683.3823529411765Z" fill="#65627f"/>
<path d="M 166.1764705882353 663.2352941176471L 375.47058823529414 710.8823529411765" stroke="#f2d9c6" stroke-width="2" opacity=".8"/>
<path d="M 166.1764705882353 663.2352941176471L 375.47058823529414 710.8823529411765 375.47058823529414 717.8823529411765 166.1764705882353 670.2352941176471Z" fill="#65627f"/>
<path d="M 182.94117647058823 650.0882352941177L 389.17647058823525 696.7058823529412" stroke="#f2d9c6" stroke-width="2" opacity=".8"/>
<path d="M 182.94117647058823 650.0882352941177L 389.17647058823525 696.7058823529412 389.17647058823525 703.7058823529412 182.94117647058823 657.0882352941177Z" fill="#65627f"/>
<path d="M 199.70588235294116 636.9411764705883L 402.88235294117646 682.5294117647059" stroke="#f2d9c6" stroke-width="2" opacity=".8"/>
<path d="M 199.70588235294116 636.9411764705883L 402.88235294117646 682.5294117647059 402.88235294117646 689.5294117647059 199.70588235294116 643.9411764705883Z" fill="#65627f"/>
<path d="M 216.47058823529412 623.7941176470588L 416.5882352941177 668.3529411764706" stroke="#f2d9c6" stroke-width="2" opacity=".8"/>
<path d="M 216.47058823529412 623.7941176470588L 416.5882352941177 668.3529411764706 416.5882352941177 675.3529411764706 216.47058823529412 630.7941176470588Z" fill="#65627f"/>
<path d="M 233.23529411764707 610.6470588235294L 430.2941176470588 654.1764705882354" stroke="#f2d9c6" stroke-width="2" opacity=".8"/>
<path d="M 233.23529411764707 610.6470588235294L 430.2941176470588 654.1764705882354 430.2941176470588 661.1764705882354 233.23529411764707 617.6470588235294Z" fill="#65627f"/>
<path d="M 250.0 597.5L 444.0 640.0" stroke="#f2d9c6" stroke-width="2" opacity=".8"/>
<path d="M 250.0 597.5L 444.0 640.0 444.0 647.0 250.0 604.5Z" fill="#65627f"/>
<path d="M 266.7647058823529 584.3529411764706L 457.7058823529412 625.8235294117646" stroke="#f2d9c6" stroke-width="2" opacity=".8"/>
<path d="M 266.7647058823529 584.3529411764706L 457.7058823529412 625.8235294117646 457.7058823529412 632.8235294117646 266.7647058823529 591.3529411764706Z" fill="#65627f"/>
<path d="M 283.5294117647059 571.2058823529412L 471.4117647058824 611.6470588235294" stroke="#f2d9c6" stroke-width="2" opacity=".8"/>
<path d="M 283.5294117647059 571.2058823529412L 471.4117647058824 611.6470588235294 471.4117647058824 618.6470588235294 283.5294117647059 578.2058823529412Z" fill="#65627f"/>
<path d="M 300.29411764705884 558.0588235294117L 485.11764705882354 597.4705882352941" stroke="#f2d9c6" stroke-width="2" opacity=".8"/>
<path d="M 300.29411764705884 558.0588235294117L 485.11764705882354 597.4705882352941 485.11764705882354 604.4705882352941 300.29411764705884 565.0588235294117Z" fill="#65627f"/>
<path d="M 317.05882352941177 544.9117647058823L 498.8235294117647 583.2941176470588" stroke="#f2d9c6" stroke-width="2" opacity=".8"/>
<path d="M 317.05882352941177 544.9117647058823L 498.8235294117647 583.2941176470588 498.8235294117647 590.2941176470588 317.05882352941177 551.9117647058823Z" fill="#65627f"/>
<path d="M 333.82352941176475 531.7647058823529L 512.5294117647059 569.1176470588235" stroke="#f2d9c6" stroke-width="2" opacity=".8"/>
<path d="M 333.82352941176475 531.7647058823529L 512.5294117647059 569.1176470588235 512.5294117647059 576.1176470588235 333.82352941176475 538.7647058823529Z" fill="#65627f"/>
<path d="M 350.5882352941177 518.6176470588235L 526.2352941176471 554.9411764705883" stroke="#f2d9c6" stroke-width="2" opacity=".8"/>
<path d="M 350.5882352941177 518.6176470588235L 526.2352941176471 554.9411764705883 526.2352941176471 561.9411764705883 350.5882352941177 525.6176470588235Z" fill="#65627f"/>
<path d="M 367.3529411764706 505.4705882352941L 539.9411764705883 540.7647058823529" stroke="#f2d9c6" stroke-width="2" opacity=".8"/>
<path d="M 367.3529411764706 505.4705882352941L 539.9411764705883 540.7647058823529 539.9411764705883 547.7647058823529 367.3529411764706 512.4705882352941Z" fill="#65627f"/>
<path d="M 384.11764705882354 492.3235294117647L 553.6470588235295 526.5882352941176" stroke="#f2d9c6" stroke-width="2" opacity=".8"/>
<path d="M 384.11764705882354 492.3235294117647L 553.6470588235295 526.5882352941176 553.6470588235295 533.5882352941176 384.11764705882354 499.3235294117647Z" fill="#65627f"/>
<path d="M 400.88235294117646 479.1764705882353L 567.3529411764705 512.4117647058824" stroke="#f2d9c6" stroke-width="2" opacity=".8"/>
<path d="M 400.88235294117646 479.1764705882353L 567.3529411764705 512.4117647058824 567.3529411764705 519.4117647058824 400.88235294117646 486.1764705882353Z" fill="#65627f"/>
<path d="M 417.6470588235294 466.0294117647059L 581.0588235294117 498.2352941176471" stroke="#f2d9c6" stroke-width="2" opacity=".8"/>
<path d="M 417.6470588235294 466.0294117647059L 581.0588235294117 498.2352941176471 581.0588235294117 505.2352941176471 417.6470588235294 473.0294117647059Z" fill="#65627f"/>
<path d="M 434.4117647058823 452.88235294117646L 594.7647058823529 484.05882352941177" stroke="#f2d9c6" stroke-width="2" opacity=".8"/>
<path d="M 434.4117647058823 452.88235294117646L 594.7647058823529 484.05882352941177 594.7647058823529 491.05882352941177 434.4117647058823 459.88235294117646Z" fill="#65627f"/>
<path d="M 451.17647058823525 439.7352941176471L 608.4705882352941 469.88235294117646" stroke="#f2d9c6" stroke-width="2" opacity=".8"/>
<path d="M 451.17647058823525 439.7352941176471L 608.4705882352941 469.88235294117646 608.4705882352941 476.88235294117646 451.17647058823525 446.7352941176471Z" fill="#65627f"/>
<path d="M 467.94117647058823 426.5882352941177L 622.1764705882354 455.7058823529412" stroke="#f2d9c6" stroke-width="2" opacity=".8"/>
<path d="M 467.94117647058823 426.5882352941177L 622.1764705882354 455.7058823529412 622.1764705882354 462.7058823529412 467.94117647058823 433.5882352941177Z" fill="#65627f"/>
<path d="M 484.7058823529412 413.44117647058823L 635.8823529411765 441.5294117647059" stroke="#f2d9c6" stroke-width="2" opacity=".8"/>
<path d="M 484.7058823529412 413.44117647058823L 635.8823529411765 441.5294117647059 635.8823529411765 448.5294117647059 484.7058823529412 420.44117647058823Z" fill="#65627f"/>
<path d="M 501.47058823529414 400.29411764705884L 649.5882352941176 427.3529411764706" stroke="#f2d9c6" stroke-width="2" opacity=".8"/>
<path d="M 501.47058823529414 400.29411764705884L 649.5882352941176 427.3529411764706 649.5882352941176 434.3529411764706 501.47058823529414 407.29411764705884Z" fill="#65627f"/>
<path d="M 518.2352941176471 387.1470588235294L 663.2941176470588 413.1764705882353" stroke="#f2d9c6" stroke-width="2" opacity=".8"/>
<path d="M 518.2352941176471 387.1470588235294L 663.2941176470588 413.1764705882353 663.2941176470588 420.1764705882353 518.2352941176471 394.1470588235294Z" fill="#65627f"/>
<path d="M 535.0 374.0L 677.0 399.0" stroke="#f2d9c6" stroke-width="2" opacity=".8"/>
<path d="M -35 801L 535 354 682 380" fill="none" stroke="#c2adb5" stroke-width="8"/>
<path d="M 209 859L 682 380V 208L 876 110" fill="none" stroke="#ead0bd" stroke-width="7"/>
<path d="M 211.0 881.0v -29" stroke="#a39ab1" stroke-width="3"/>
<path d="M 235.52631578947367 855.6315789473684v -29" stroke="#a39ab1" stroke-width="3"/>
<path d="M 260.05263157894734 830.2631578947369v -29" stroke="#a39ab1" stroke-width="3"/>
<path d="M 284.57894736842104 804.8947368421053v -29" stroke="#a39ab1" stroke-width="3"/>
<path d="M 309.10526315789474 779.5263157894736v -29" stroke="#a39ab1" stroke-width="3"/>
<path d="M 333.63157894736844 754.1578947368421v -29" stroke="#a39ab1" stroke-width="3"/>
<path d="M 358.1578947368421 728.7894736842105v -29" stroke="#a39ab1" stroke-width="3"/>
<path d="M 382.6842105263158 703.421052631579v -29" stroke="#a39ab1" stroke-width="3"/>
<path d="M 407.2105263157895 678.0526315789474v -29" stroke="#a39ab1" stroke-width="3"/>
<path d="M 431.7368421052631 652.6842105263158v -29" stroke="#a39ab1" stroke-width="3"/>
<path d="M 456.2631578947368 627.3157894736842v -29" stroke="#a39ab1" stroke-width="3"/>
<path d="M 480.7894736842105 601.9473684210526v -29" stroke="#a39ab1" stroke-width="3"/>
<path d="M 505.3157894736842 576.578947368421v -29" stroke="#a39ab1" stroke-width="3"/>
<path d="M 529.8421052631579 551.2105263157895v -29" stroke="#a39ab1" stroke-width="3"/>
<path d="M 554.3684210526316 525.8421052631579v -29" stroke="#a39ab1" stroke-width="3"/>
<path d="M 578.8947368421052 500.4736842105263v -29" stroke="#a39ab1" stroke-width="3"/>
<path d="M 603.421052631579 475.10526315789474v -29" stroke="#a39ab1" stroke-width="3"/>
<path d="M 627.9473684210527 449.7368421052632v -29" stroke="#a39ab1" stroke-width="3"/>
<path d="M 652.4736842105262 424.3684210526316v -29" stroke="#a39ab1" stroke-width="3"/>
<path d="M 535 375L 537 195 681 210V 399Z" fill="#6b6d8e"/>
<path d="M 537 190L 681 210" stroke="#c4adba" stroke-width="3"/>
<path d="M 537 201L 681 221" stroke="#c4adba" stroke-width="3"/>
<path d="M 537 212L 681 232" stroke="#c4adba" stroke-width="3"/>
<path d="M 537 223L 681 243" stroke="#c4adba" stroke-width="3"/>
<path d="M 537 234L 681 254" stroke="#c4adba" stroke-width="3"/>
<path d="M 537 245L 681 265" stroke="#c4adba" stroke-width="3"/>
<path d="M 537 256L 681 276" stroke="#c4adba" stroke-width="3"/>
<path d="M 537 267L 681 287" stroke="#c4adba" stroke-width="3"/>
<path d="M 537 278L 681 298" stroke="#c4adba" stroke-width="3"/>
<path d="M 537 289L 681 309" stroke="#c4adba" stroke-width="3"/>
<path d="M 537 300L 681 320" stroke="#c4adba" stroke-width="3"/>
<path d="M 537 311L 681 331" stroke="#c4adba" stroke-width="3"/>
<path d="M 537 322L 681 342" stroke="#c4adba" stroke-width="3"/>
<path d="M 537 333L 681 353" stroke="#c4adba" stroke-width="3"/>
<path d="M 537 344L 681 364" stroke="#c4adba" stroke-width="3"/>
<path d="M 537 355L 681 375" stroke="#c4adba" stroke-width="3"/>
<path d="M 537 366L 681 386" stroke="#c4adba" stroke-width="3"/>
<path d="M 536 195L 780 72 878 110 681 210Z" fill="#bba9b8"/>
<path d="M 536.0 195.0L 681.0 210.0" stroke="#645f83" stroke-width="4"/>
<path d="M 547.0909090909091 189.4090909090909L 689.9545454545455 205.45454545454547" stroke="#645f83" stroke-width="4"/>
<path d="M 558.1818181818181 183.8181818181818L 698.9090909090909 200.9090909090909" stroke="#645f83" stroke-width="4"/>
<path d="M 569.2727272727273 178.22727272727272L 707.8636363636364 196.36363636363637" stroke="#645f83" stroke-width="4"/>
<path d="M 580.3636363636364 172.63636363636363L 716.8181818181819 191.8181818181818" stroke="#645f83" stroke-width="4"/>
<path d="M 591.4545454545455 167.04545454545456L 725.7727272727273 187.27272727272728" stroke="#645f83" stroke-width="4"/>
<path d="M 602.5454545454545 161.45454545454547L 734.7272727272727 182.72727272727272" stroke="#645f83" stroke-width="4"/>
<path d="M 613.6363636363636 155.86363636363637L 743.6818181818181 178.1818181818182" stroke="#645f83" stroke-width="4"/>
<path d="M 624.7272727272727 150.27272727272728L 752.6363636363636 173.63636363636363" stroke="#645f83" stroke-width="4"/>
<path d="M 635.8181818181819 144.6818181818182L 761.5909090909091 169.0909090909091" stroke="#645f83" stroke-width="4"/>
<path d="M 646.9090909090909 139.0909090909091L 770.5454545454545 164.54545454545456" stroke="#645f83" stroke-width="4"/>
<path d="M 658.0 133.5L 779.5 160.0" stroke="#645f83" stroke-width="4"/>
<path d="M 669.0909090909091 127.90909090909092L 788.4545454545455 155.45454545454547" stroke="#645f83" stroke-width="4"/>
<path d="M 680.1818181818182 122.31818181818181L 797.4090909090909 150.9090909090909" stroke="#645f83" stroke-width="4"/>
<path d="M 691.2727272727273 116.72727272727273L 806.3636363636364 146.36363636363637" stroke="#645f83" stroke-width="4"/>
<path d="M 702.3636363636364 111.13636363636364L 815.3181818181818 141.8181818181818" stroke="#645f83" stroke-width="4"/>
<path d="M 713.4545454545455 105.54545454545455L 824.2727272727273 137.27272727272725" stroke="#645f83" stroke-width="4"/>
<path d="M 724.5454545454545 99.95454545454545L 833.2272727272727 132.72727272727275" stroke="#645f83" stroke-width="4"/>
<path d="M 735.6363636363636 94.36363636363636L 842.1818181818182 128.1818181818182" stroke="#645f83" stroke-width="4"/>
<path d="M 746.7272727272727 88.77272727272727L 851.1363636363636 123.63636363636364" stroke="#645f83" stroke-width="4"/>
<path d="M 757.8181818181818 83.18181818181819L 860.0909090909091 119.0909090909091" stroke="#645f83" stroke-width="4"/>
<path d="M 768.9090909090909 77.59090909090908L 869.0454545454545 114.54545454545455" stroke="#645f83" stroke-width="4"/>
<path d="M 208 530Q 451 555 799 466L 800 489Q 450 598 208 557Z" fill="#535b7b"/>
<path d="M 208 530Q 451 555 799 466" fill="none" stroke="#ddbbb4" stroke-width="8"/>
<path d="M 208 510Q 451 535 799 446" fill="none" stroke="#c6abb3" stroke-width="2"/>
<path d="M 208.0 530.0v -20" stroke="#c4a4b0" stroke-width="2"/>
<path d="M 232.625 531.8854166666667v -20" stroke="#c4a4b0" stroke-width="2"/>
<path d="M 257.25 533.3749999999999v -20" stroke="#c4a4b0" stroke-width="2"/>
<path d="M 281.875 534.46875v -20" stroke="#c4a4b0" stroke-width="2"/>
<path d="M 306.5 535.1666666666667v -20" stroke="#c4a4b0" stroke-width="2"/>
<path d="M 331.125 535.46875v -20" stroke="#c4a4b0" stroke-width="2"/>
<path d="M 355.75 535.375v -20" stroke="#c4a4b0" stroke-width="2"/>
<path d="M 380.375 534.8854166666666v -20" stroke="#c4a4b0" stroke-width="2"/>
<path d="M 405.0 534.0v -20" stroke="#c4a4b0" stroke-width="2"/>
<path d="M 429.625 532.71875v -20" stroke="#c4a4b0" stroke-width="2"/>
<path d="M 454.25 531.0416666666666v -20" stroke="#c4a4b0" stroke-width="2"/>
<path d="M 478.875 528.96875v -20" stroke="#c4a4b0" stroke-width="2"/>
<path d="M 503.5 526.5v -20" stroke="#c4a4b0" stroke-width="2"/>
<path d="M 528.125 523.6354166666667v -20" stroke="#c4a4b0" stroke-width="2"/>
<path d="M 552.75 520.375v -20" stroke="#c4a4b0" stroke-width="2"/>
<path d="M 577.375 516.71875v -20" stroke="#c4a4b0" stroke-width="2"/>
<path d="M 602.0 512.6666666666667v -20" stroke="#c4a4b0" stroke-width="2"/>
<path d="M 626.625 508.21875v -20" stroke="#c4a4b0" stroke-width="2"/>
<path d="M 651.25 503.375v -20" stroke="#c4a4b0" stroke-width="2"/>
<path d="M 675.875 498.1354166666667v -20" stroke="#c4a4b0" stroke-width="2"/>
<path d="M 700.5 492.5v -20" stroke="#c4a4b0" stroke-width="2"/>
<path d="M 725.125 486.46875v -20" stroke="#c4a4b0" stroke-width="2"/>
<path d="M 749.75 480.04166666666663v -20" stroke="#c4a4b0" stroke-width="2"/>
<path d="M 774.375 473.21875000000006v -20" stroke="#c4a4b0" stroke-width="2"/>
<path d="M 799.0 466.0v -20" stroke="#c4a4b0" stroke-width="2"/>
<path d="M 266 506v -41q 14-26 29-6v 40Z" fill="#273b59"/>
<path d="M 270 502v -36q 10-18 18-6v 38Z" fill="#e9bc9a"/>
<path d="M 809 613v -57q 20-33 39-9v 56Z" fill="#283b5a"/>
<path d="M 0 93Q 346 237 795 63M 0 112Q 327 270 818 102" fill="none" stroke="#3a4568" stroke-width="2"/>
<g transform="translate(197 680) rotate(0) scale(1.15)">
<path d="M -2 0l 47 12 8-4L 5-4Z" fill="#303b61" opacity=".55"/>
<path d="M -5-26Q -12-23-12-12l 4 2 3-12M 5-26q 9 6 9 15" fill="none" stroke="#e1b6a5" stroke-width="3" stroke-linecap="round"/>
<path d="M -6-7L -8 2M 3-7l 5 7" stroke="#202e49" stroke-width="5" stroke-linecap="round"/>
<path d="M -6-28Q 0-32 6-27l 4 20Q 0-3-9-9Z" fill="#cf7d69"/>
<ellipse cy="-35" rx="5" ry="6" fill="#edc5ad"/>
<path d="M -5-36q -1-8 7-5l 4 5" fill="#29334e"/>
<path d="M 14-12h 8v 13h -8Z" fill="#9c6c6c"/>
</g>
<g transform="translate(368 555) rotate(0) scale(0.75)">
<path d="M -2 0l 47 12 8-4L 5-4Z" fill="#303b61" opacity=".55"/>
<path d="M -5-26Q -12-23-12-12l 4 2 3-12M 5-26q 9 6 9 15" fill="none" stroke="#e1b6a5" stroke-width="3" stroke-linecap="round"/>
<path d="M -6-7L -8 2M 3-7l 5 7" stroke="#202e49" stroke-width="5" stroke-linecap="round"/>
<path d="M -6-28Q 0-32 6-27l 4 20Q 0-3-9-9Z" fill="#e3c7a3"/>
<ellipse cy="-35" rx="5" ry="6" fill="#edc5ad"/>
<path d="M -5-36q -1-8 7-5l 4 5" fill="#29334e"/>
<path d="M 14-12h 8v 13h -8Z" fill="#9c6c6c"/>
</g>
<g transform="translate(557 390) rotate(0) scale(0.58)">
<path d="M -2 0l 47 12 8-4L 5-4Z" fill="#303b61" opacity=".55"/>
<path d="M -5-26Q -12-23-12-12l 4 2 3-12M 5-26q 9 6 9 15" fill="none" stroke="#e1b6a5" stroke-width="3" stroke-linecap="round"/>
<path d="M -6-7L -8 2M 3-7l 5 7" stroke="#202e49" stroke-width="5" stroke-linecap="round"/>
<path d="M -6-28Q 0-32 6-27l 4 20Q 0-3-9-9Z" fill="#e7aa79"/>
<ellipse cy="-35" rx="5" ry="6" fill="#edc5ad"/>
<path d="M -5-36q -1-8 7-5l 4 5" fill="#29334e"/>
<path d="M 14-12h 8v 13h -8Z" fill="#9c6c6c"/>
</g>
<g transform="translate(907 215) rotate(90) scale(0.66)">
<path d="M -2 0l 47 12 8-4L 5-4Z" fill="#303b61" opacity=".55"/>
<path d="M -5-26Q -12-23-12-12l 4 2 3-12M 5-26q 9 6 9 15" fill="none" stroke="#e1b6a5" stroke-width="3" stroke-linecap="round"/>
<path d="M -6-7L -8 2M 3-7l 5 7" stroke="#202e49" stroke-width="5" stroke-linecap="round"/>
<path d="M -6-28Q 0-32 6-27l 4 20Q 0-3-9-9Z" fill="#edc09a"/>
<ellipse cy="-35" rx="5" ry="6" fill="#edc5ad"/>
<path d="M -5-36q -1-8 7-5l 4 5" fill="#29334e"/>
<path d="M 14-12h 8v 13h -8Z" fill="#9c6c6c"/>
</g>
<path d="M 0 893V 799l 74-29 263 130Z" fill="#202f4c"/>
<path d="M 0 801l 77-34 260 126-7 7L 72 785 0 815Z" fill="#82768e"/>
<path d="M 1090 900V 737l 110-51v 214Z" fill="#1b2d4c"/>
<path d="M 887 326q 7-5 12 1q 7-4 12 0" fill="none" stroke="#364567" stroke-width="2"/>
<path d="M 929 285q 7-5 12 1q 7-4 12 0" fill="none" stroke="#364567" stroke-width="2"/>
<path d="M 947 310q 7-5 12 1q 7-4 12 0" fill="none" stroke="#364567" stroke-width="2"/>
<path d="M 719 289q 7-5 12 1q 7-4 12 0" fill="none" stroke="#364567" stroke-width="2"/>
<path d="M 170 206q 7-5 12 1q 7-4 12 0" fill="none" stroke="#364567" stroke-width="2"/>
</svg>
