<svg xmlns="http://www.w3.org/2000/svg" viewBox="0 0 960 700">
<defs>
<linearGradient id="room" x2="1" y2="1">
<stop stop-color="#10162c"/>
<stop offset=".58" stop-color="#20283d"/>
<stop offset="1" stop-color="#3b2d3c"/>
</linearGradient>
<linearGradient id="wood" x2="0" y2="1">
<stop stop-color="#845438"/>
<stop offset=".45" stop-color="#523326"/>
<stop offset="1" stop-color="#271c21"/>
</linearGradient>
<radialGradient id="halo">
<stop stop-color="#fffbd0" stop-opacity=".85"/>
<stop offset=".45" stop-color="#b9e7e0" stop-opacity=".28"/>
<stop offset="1" stop-color="#7cb6c9" stop-opacity="0"/>
</radialGradient>
<linearGradient id="moon" x2="1" y2="1">
<stop stop-color="#fffbd1"/>
<stop offset=".48" stop-color="#cce8dc"/>
<stop offset="1" stop-color="#7197ad"/>
</linearGradient>
<linearGradient id="cloth">
<stop stop-color="#b75159"/>
<stop offset="1" stop-color="#5c3048"/>
</linearGradient>
<pattern id="grain" width="80" height="25" patternUnits="userSpaceOnUse">
<path d="M 0 10q 20-9 40 0t 40 0" fill="none" stroke="#c18a58" stroke-width="2" opacity=".2"/>
</pattern>
</defs>
<rect width="960" height="700" fill="url(#room)"/>
<path d="M 45 57h 326v 319H 45z" fill="#090d21" stroke="#655a65" stroke-width="14"/>
<path d="M 66 78h 284v 277H 66z" fill="#11183a"/>
<g fill="#dbeeff">
<circle cx="86" cy="105" r="2"/>
<circle cx="130" cy="154" r="3"/>
<circle cx="184" cy="92" r="2"/>
<circle cx="295" cy="112" r="3"/>
<circle cx="327" cy="184" r="2"/>
<circle cx="95" cy="263" r="3"/>
<circle cx="144" cy="324" r="2"/>
<circle cx="311" cy="315" r="3"/>
<circle cx="272" cy="272" r="2"/>
</g>
<circle cx="226" cy="208" r="91" fill="url(#halo)" opacity=".32"/>
<circle cx="226" cy="208" r="58" fill="#080c20"/>
<path d="M 168 208a 58 58 0 0 1 116 0" fill="none" stroke="#7893ad" stroke-width="3" stroke-dasharray="4 10" opacity=".38"/>
<path d="M 208 78v 277M 66 219h 284" stroke="#514d60" stroke-width="9"/>
<path d="M 27 43q 53 82 21 169t 11 201M 386 42q -47 91-21 169t -5 200" fill="none" stroke="#533347" stroke-width="28"/>
<path d="M 420 68h 494v 24H 420zM 440 234h 451v 22H 440z" fill="#68432f" stroke="#251b20" stroke-width="6"/>
<g stroke="#24202a" stroke-width="4">
<path d="M 455 104h 57l -5 111h -48z" fill="#4d8a83"/>
<ellipse cx="484" cy="104" rx="29" ry="8" fill="#87b5a7"/>
<path d="M 535 129h 65l -9 86h -49z" fill="#a5644f"/>
<path d="M 552 106h 31v 25h -31z" fill="#d0ad6c"/>
<path d="M 629 116h 48l 12 99h -69z" fill="#566f91"/>
<ellipse cx="653" cy="116" rx="24" ry="7" fill="#9ab6c0"/>
<path d="M 720 105h 62l -6 110h -51z" fill="#78935e"/>
<path d="M 737 83h 30v 24h -30z" fill="#baa66e"/>
<path d="M 817 118h 42l 13 97h -68z" fill="#8d5470"/>
<ellipse cx="838" cy="118" rx="21" ry="6" fill="#c195a8"/>
</g>
<g fill="#f2d68b">
<circle cx="477" cy="155" r="5"/>
<circle cx="490" cy="181" r="3"/>
<circle cx="648" cy="151" r="4"/>
<circle cx="664" cy="185" r="5"/>
<circle cx="745" cy="145" r="4"/>
<circle cx="754" cy="172" r="3"/>
</g>
<path d="M 573 0v 75" stroke="#32242b" stroke-width="12"/>
<path d="M 512 76h 123l 39 102H 474z" fill="#b7784a" stroke="#2d2229" stroke-width="7"/>
<path d="M 494 163h 160l -16 24H 509z" fill="#ffd995"/>
<path d="M 509 187l -145 338h 438L 638 187z" fill="#ffe3a0" opacity=".1"/>
<path d="M 0 415l 960-20v 305H 0z" fill="#161923"/>
<path d="M 31 651q 396-111 847-22l 82 71H 0z" fill="#090d16" opacity=".65"/>
<path d="M 85 401l 788-17 53 71-851 28z" fill="#9b6841" stroke="#2b2022" stroke-width="8"/>
<path d="M 75 483l 851-28v 245H 57z" fill="url(#wood)" stroke="#281c20" stroke-width="8"/>
<path d="M 75 483l 851-28v 47L 69 532z" fill="#a36b43"/>
<path d="M 74 507h 850v 193H 74z" fill="url(#grain)" opacity=".9"/>
<path d="M 127 521l -21 179h 64l 23-182m 646-21l 24 203h 61l -18-206" stroke="#261b20" stroke-width="14"/>
<ellipse cx="478" cy="470" rx="247" ry="152" fill="url(#halo)" opacity=".6"/>
<ellipse cx="487" cy="519" rx="218" ry="39" fill="#90c7c6" opacity=".18"/>
<path d="M 562 265c -119 0-215 79-215 176 0 88 79 161 183 174-50-33-81-88-81-149 0-96 75-174 168-183-18-11-36-18-55-18z" fill="url(#moon)" stroke="#efffe9" stroke-width="9" stroke-linejoin="round"/>
<path d="M 499 290q -29 44-2 78l -41 36 35 38-30 52 44 41-11 51" fill="none" stroke="#566e81" stroke-width="10" stroke-linejoin="round"/>
<path d="M 499 290q -29 44-2 78l -41 36" fill="none" stroke="#ffd77e" stroke-width="6"/>
<path d="M 491 442l -30 52 44 41" fill="none" stroke="#fff0a8" stroke-width="4" stroke-dasharray="10 7"/>
<g fill="#8fb7bd" stroke="#e9fff0" stroke-width="4">
<path d="M 401 566l -36 45 61 13 23-50z"/>
<path d="M 532 585l 29 48 48-24-23-48z"/>
<path d="M 326 497l -49 23 28 41 42-32z"/>
</g>
<ellipse cx="746" cy="641" rx="116" ry="26" fill="#0c1019" opacity=".72"/>
<g stroke="#211c27" stroke-linejoin="round">
<path d="M 739 268q 5-58 62-61 62 1 64 59-4 57-61 63-59-4-65-61z" fill="#ad7057" stroke-width="7"/>
<path d="M 740 260q 7-57 63-58 55 3 65 48-31-17-65-8-34 10-63 18z" fill="#332c39" stroke-width="6"/>
<path d="M 751 319q 60-26 105 20 30 81 1 181l -142-4q -16-110 36-197z" fill="url(#cloth)" stroke-width="8"/>
<path d="M 730 351q -56 39-92 97l 26 25q 42-41 93-62" fill="none" stroke="#ad7057" stroke-width="23" stroke-linecap="round"/>
<path d="M 843 350q -20 55-68 105l 25 25q 58-40 83-101" fill="none" stroke="#ad7057" stroke-width="23" stroke-linecap="round"/>
<path d="M 714 513l -26 126h 58l 42-102 22 102h 61l -12-122z" fill="#283751" stroke-width="9"/>
</g>
<ellipse cx="650" cy="458" rx="18" ry="15" fill="#c88868" transform="rotate(-25 650 458)"/>
<ellipse cx="788" cy="466" rx="18" ry="15" fill="#c88868" transform="rotate(30 788 466)"/>
<path d="M 785 457l -79-75" stroke="#35323b" stroke-width="9" stroke-linecap="round"/>
<path d="M 706 382l -26-29 15-13 30 31z" fill="#b9c7c0" stroke="#2d2c34" stroke-width="4"/>
<path d="M 695 373l -27 32" stroke="#ffe29a" stroke-width="5"/>
<circle cx="779" cy="267" r="22" fill="#a9d1d1" fill-opacity=".35" stroke="#453742" stroke-width="6"/>
<circle cx="829" cy="265" r="22" fill="#a9d1d1" fill-opacity=".35" stroke="#453742" stroke-width="6"/>
<path d="M 801 264h 7m 43 8l 16 7M 783 296q 21 13 40-1" fill="none" stroke="#563741" stroke-width="5"/>
<g stroke="#24232b" stroke-width="6" stroke-linecap="round">
<path d="M 154 441l 119 8"/>
<path d="M 186 417l 72 50"/>
<path d="M 593 448l -3 93"/>
<path d="M 566 529h 53"/>
<path d="M 215 559l 82 54"/>
<path d="M 237 615l 44-80"/>
</g>
<g fill="#ffef9e">
<circle cx="622" cy="376" r="6"/>
<circle cx="651" cy="346" r="4"/>
<circle cx="584" cy="397" r="5"/>
<circle cx="695" cy="420" r="3"/>
<circle cx="534" cy="351" r="4"/>
<circle cx="604" cy="332" r="3"/>
<path d="M 640 391h 22m -11-11v 22M 570 365h 17m -8-9v 18M 679 358h 15m -7-8v 16" stroke="#ffef9e" stroke-width="3"/>
</g>
<path d="M 89 588h 219l -18 84H 109z" fill="#4e6e71" stroke="#211f26" stroke-width="7"/>
<path d="M 154 588q 16-57 80-3" fill="none" stroke="#293c45" stroke-width="10"/>
<path d="M 119 615h 168M 130 644h 151" stroke="#90a99d" stroke-width="5"/>
</svg>
